/* XPM */
static char *_4[] = {
/* columns rows colors chars-per-pixel */
"64 60 210 2 ",
"   c #000001",
".  c #0B0302",
"X  c #0C090A",
"o  c #0C0807",
"O  c #130402",
"+  c #1B0402",
"@  c #160A08",
"#  c #141415",
"$  c #1B1B1C",
"%  c #230402",
"&  c #290603",
"*  c #250A06",
"=  c #290804",
"-  c #250F0B",
";  c #320A04",
":  c #3C0C05",
">  c #320F09",
",  c #3A0F08",
"<  c #25110D",
"1  c #2C110D",
"2  c #3A130C",
"3  c #35100A",
"4  c #2A1511",
"5  c #2C1C18",
"6  c #231512",
"7  c #391C16",
"8  c #351813",
"9  c #31221F",
"0  c #292423",
"q  c #252526",
"w  c #392B28",
"e  c #3C312E",
"r  c #333233",
"t  c #3C3B3B",
"y  c #3A3837",
"u  c #420E06",
"i  c #4D0E05",
"p  c #400F08",
"a  c #500F06",
"s  c #451007",
"d  c #4B1107",
"f  c #45130A",
"g  c #4B1409",
"h  c #4E180E",
"j  c #47180E",
"k  c #521107",
"l  c #54170B",
"z  c #5C160A",
"x  c #54190E",
"c  c #5C190C",
"v  c #431C15",
"b  c #4D1C13",
"n  c #531D13",
"m  c #5C1D12",
"M  c #60170A",
"N  c #641A0C",
"B  c #6A1C0D",
"V  c #651F11",
"C  c #43221A",
"Z  c #4B241C",
"A  c #452115",
"S  c #552116",
"D  c #5C2015",
"F  c #52231A",
"G  c #58281C",
"H  c #72200F",
"J  c #672316",
"K  c #6D2315",
"L  c #64271B",
"P  c #6B271A",
"I  c #632A1D",
"U  c #6C291C",
"Y  c #732314",
"T  c #7B2515",
"R  c #7D2817",
"E  c #742A1B",
"W  c #7B2B1B",
"Q  c #742817",
"!  c #442621",
"~  c #462A23",
"^  c #482F27",
"/  c #562D22",
"(  c #4B322E",
")  c #5B342C",
"_  c #4B3935",
"`  c #403F3F",
"'  c #4B3A36",
"]  c #573D36",
"[  c #632C20",
"{  c #782F21",
"}  c #623329",
"|  c #6B3627",
" . c #793425",
".. c #773628",
"X. c #633A32",
"o. c #4B413E",
"O. c #5C433E",
"+. c #68433C",
"@. c #77453B",
"#. c #494848",
"$. c #564845",
"%. c #515151",
"&. c #5C5C5C",
"*. c #5A5659",
"=. c #634C45",
"-. c #624E4B",
";. c #705149",
":. c #625D5C",
">. c #6A5350",
",. c #775E57",
"<. c #78625B",
"1. c #636262",
"2. c #6B6A6A",
"3. c #726C6B",
"4. c #77706D",
"5. c #746F72",
"6. c #7A7473",
"7. c #797878",
"8. c #802716",
"9. c #822817",
"0. c #842B1A",
"q. c #892D1A",
"w. c #8C301E",
"e. c #8A3322",
"r. c #873221",
"t. c #923F2F",
"y. c #863D30",
"u. c #87473B",
"i. c #835545",
"p. c #935C54",
"a. c #846454",
"s. c #8B6657",
"d. c #8A6B62",
"f. c #956D63",
"g. c #9C6F63",
"h. c #9C746B",
"j. c #957568",
"k. c #817B79",
"l. c #817574",
"z. c #9F7E77",
"x. c #A3776C",
"c. c #A37972",
"v. c #A5827A",
"b. c #AB827C",
"n. c #858383",
"m. c #8B8684",
"M. c #8B8A8B",
"N. c #918D8C",
"B. c #96908E",
"V. c #9B9493",
"C. c #999999",
"Z. c #A18A84",
"A. c #AB8D85",
"S. c #B08E87",
"D. c #AC948C",
"F. c #A49C9A",
"G. c #AD9D99",
"H. c #B79A94",
"J. c #B5968E",
"K. c #ADA19B",
"L. c #B1A699",
"P. c #B9A19C",
"I. c #B1AC91",
"U. c #A9A8A6",
"Y. c #AAA7A6",
"T. c #BAA9A4",
"R. c #B2ACAA",
"E. c #B9AAA4",
"W. c #B4B3B3",
"Q. c #BFB8B5",
"!. c #BABBBA",
"~. c #B8B7B5",
"^. c #BAB9A4",
"/. c #C1AAA5",
"(. c #C3AFAA",
"). c #C3B1AC",
"_. c #CBB3AD",
"`. c #CCBAB5",
"'. c #C7BEBA",
"]. c #D0BCB7",
"[. c #C7C2BE",
"{. c #D3C1BC",
"}. c #C4C3C3",
"|. c #CBCAC9",
" X c #CEC7C5",
".X c #D8C9C6",
"XX c #DACDCA",
"oX c #CFD0CF",
"OX c #D6D2CE",
"+X c #D4D4D3",
"@X c #DFDDDD",
"#X c #DDD9D6",
"$X c #E9D3CD",
"%X c #E4DDDB",
"&X c #EBDEDB",
"*X c #E6D9D6",
"=X c #E4CAC5",
"-X c #DFE0DF",
";X c #E3E1DF",
":X c #E8E0DE",
">X c #E5E4E4",
",X c #EAE6E5",
"<X c #EBE8E6",
"1X c #EDEBEA",
"2X c #F3EDEC",
"3X c #F3E6E3",
"4X c #F4F0EF",
"5X c #F5F4F3",
"6X c #F9F7F6",
"7X c #FDFDFD",
/* pixels */
"                                                                                                                                ",
"                                                                                                                                ",
"                                                                                                                                ",
"                                                                                                                                ",
"                                                                                                                                ",
"                                                                                                                                ",
"                                                        q %.&.%.$                                                               ",
"                                                      M.+XW.|.6X7XM.                                                            ",
"                                                    &.'.K.~.v.U.5X5X1.                                                          ",
"                                                    !.@.s.L.j.j.1X-X}.                                                          ",
"                                                  $ oXi.f.L.x.b.oX+X+X$                                                         ",
"                                                  q -Xs.I.g.^.D.}.oX!.q                                                         ",
"                                                    R.a.a.I./ =.!.W.C.                                                          ",
"                                                    5.R.i.a.) 4.|.W.%.                                                          ",
"                                                    X W.G.<.U.|.!.2.                                                            ",
"                                                # r &.7.|.C.U.U.!.B.7.2.&.%.t X                                                 ",
"                                            m.>X7X7X7X7X7X4X<X1X5X5X6X7X7X7X7X#Xy                                               ",
"                                          2.7X7X7X7X7X7X7X7X7X6X;X+X5X5X7X7X7X5X'.                                              ",
"                                          F.7X7X7X7X7X7X7X7X7X7X7X7X7X,X5X&X`.P.OX                                              ",
"                                          C.|.@X7X7X7X7X7X7X7X7X7X7X7X1X%XXX/.E.[.                                              ",
"                                          M.:XXX7X7X7X7X7X7X7X7X7X7X7X6X<X4X5X*XQ.                                              ",
"                                          M.*XH.S._./._..X&X<X7X7X7X7X5X,X(.z..XY.                                              ",
"                                          m.].H.v.x.S.c.b.b.j.].7X7X7X5X2XP.).,XV.                                              ",
"                                          6.&X,X{.J.z.h.b.T.A.E.6X7X7X6X5X1X<X4XN.                                              ",
"                                          1.3X2Xh.A.A.(._.7X7X7X7X7X7X7X<X>X1X1Xk.                                              ",
"                                          2.J.d.j.B.f.d.H.6X7X7X7X7X7X7X4X,X4X5X6.                                              ",
"                                          2.s.G.d.6X<X`.A.*X$X2X7X7X7X5X5X,X7X>X1.                                              ",
"                                          1.G.,.-.,X1X7X6X4X=X*X7X7X7X5X,X5X6X+X&.                                              ",
"                                          %.>X-.( ~ ] >.l.R.7X7X7X7X7X,X@X6X<X}.t                                               ",
"                                          0 k.R.@X-XW.C.-.< m.7X7X7X7X@X X}.B.e @                                               ",
"                                          @ ( :.n.W.}.W.6.C _ 1X7X7X2XR.n.' 1 2 O                                               ",
"                                          + ( #.y r t t ' b < :.V.V.3.e v h s u .                                               ",
"                                          O ] 5.*.:.5.` _ c > X...L b 2 S g g : .                                               ",
"                                          O >.5.2.M.W.6.+.c = : z B c v l g g : .                                               ",
"                                          O w #.` 5.Y.F.+.c % % c N c b d d u : .                                               ",
"                                          o } ! 5 0 r ` ) x & & m H c F g u u :                                                 ",
"                                            r.R R ..X.( ) x & i K Q c b h g d :                                                 ",
"                                          . q.0.{ N E E U x % a H B c S d g s :                                                 ",
"                                          . e.q.,.! T 9.W l % a Y N l F g d u ,                                                 ",
"                                            0.{ $.4 P T W k % a N z x F s d u >                                                 ",
"                                            W 0.) 8 S T { g % a N N | n i s u ;                                                 ",
"                                            W q.8.T T T { g % a N z x j u f u ;                                                 ",
"                                            W q.8.8.9.8. .s % i B k h g g g s =                                                 ",
"                                            P R T R v +.u.s % d { l h f g g s &                                                 ",
"                                            D I P R > $.Q : + i L k b g g g g *                                                 ",
"                                            S X.O.;.} Z Y , % i @.i f g g g s +                                                 ",
"                                            S X.A | +.W L ; O i c i f b g g f +                                                 ",
"                                            F ] G  .O.L [ = O i M i b h g s j +                                                 ",
"                                            b C o.] ' ( Z @ + i M d n g g d f O                                                 ",
"                                            x Q c F 9 w 5 & ; a N z n g g u , O                                                 ",
"                                            m W Q y.N s u i m B Y N S l d g , .                                                 ",
"                                            m 9.Y r.T B N N B 0.W V I x g u u .                                                 ",
"                                            b 0.9.q.9.9.Y B Y q.W K [ h d u : .                                                 ",
"                                            g 9.9.q.q.9.9.T e.q.9.Y L d s u : o                                                 ",
"                                            > 9.R 0.0.q.0.q.q.w.9.Y I l u : >                                                   ",
"                                            1 W 0.0.R q.q.q.0.0.u.T G g u , =                                                   ",
"                                            @ /  ...W T 9.q.q.w.q.K G i , *                                                     ",
"                                                - n I L W R 0.0.9.m b 8 <                                                       ",
"                                                    @ 4 b L Y Q K h 2 6                                                         ",
"                                                        . 8 / A C 7 6                                                           "
};
