/* XPM */
static char *_c8b37f9e9e24b5495bfc7ab0c6ece7flZzqsZBsqY7kNNC3[] = {
/* columns rows colors chars-per-pixel */
"64 64 227 2 ",
"   c #000001",
".  c #3B2A2A",
"X  c #4E241E",
"o  c #56261F",
"O  c #4A2924",
"+  c #532A24",
"@  c #562F29",
"#  c #4D342D",
"$  c #5C342D",
"%  c #57342E",
"&  c #4C3936",
"*  c #5D3731",
"=  c #533D39",
"-  c #553A34",
";  c #613B35",
":  c #6E3228",
">  c #5A453D",
",  c #58433C",
"<  c #6C4F3E",
"1  c #523F4D",
"2  c #5B4747",
"3  c #554B52",
"4  c #654C45",
"5  c #6B554B",
"6  c #685248",
"7  c #735A4D",
"8  c #76594C",
"9  c #614E5B",
"0  c #6B5651",
"q  c #685659",
"w  c #775B53",
"e  c #7B6253",
"r  c #7A655C",
"t  c #7C604F",
"y  c #5D5965",
"u  c #695565",
"i  c #6C596C",
"p  c #685566",
"a  c #6C5A74",
"s  c #715E74",
"d  c #745E6A",
"f  c #7B6A64",
"g  c #7B6C68",
"h  c #75637D",
"j  c #7F797F",
"k  c #95392C",
"l  c #AD3727",
"z  c #DC3F2A",
"x  c #964033",
"c  c #B04736",
"v  c #D94929",
"b  c #DC522D",
"n  c #D84632",
"m  c #CD4F34",
"M  c #E5532C",
"N  c #F25C34",
"B  c #FA5D33",
"V  c #EA5231",
"C  c #F46239",
"Z  c #856A5A",
"A  c #8A6E5C",
"S  c #836756",
"D  c #8D715D",
"F  c #97765D",
"G  c #B5674F",
"H  c #836964",
"J  c #88736A",
"K  c #937661",
"L  c #967963",
"P  c #9A7C65",
"I  c #9D7E6A",
"U  c #95796B",
"Y  c #8A7A76",
"T  c #937E72",
"R  c #927D7B",
"E  c #A37F64",
"W  c #C57058",
"Q  c #F47856",
"!  c #E36240",
"~  c #9F816A",
"^  c #9B8478",
"/  c #A4846B",
"(  c #A9876C",
")  c #AA896F",
"_  c #A28067",
"`  c #A38672",
"'  c #A48975",
"]  c #AD8B71",
"[  c #A48C7D",
"{  c #A98979",
"}  c #B18E73",
"|  c #AE927D",
" . c #B49275",
".. c #B99576",
"X. c #B5957B",
"o. c #B99679",
"O. c #BD9A7C",
"+. c #B28B6B",
"@. c #C29D7D",
"#. c #C19977",
"$. c #C58C7C",
"%. c #F78E71",
"&. c #C9A27D",
"*. c #766581",
"=. c #786683",
"-. c #7C6A88",
";. c #6C7591",
":. c #7388AC",
">. c #6F8AB5",
",. c #7287AB",
"<. c #7A98C8",
"1. c #7AA4DD",
"2. c #948885",
"3. c #AD9483",
"4. c #A9968B",
"5. c #B89987",
"6. c #A59A97",
"7. c #B49D92",
"8. c #A28D81",
"9. c #BAA394",
"0. c #BCA99C",
"q. c #B7A497",
"w. c #B6A192",
"e. c #B6ABA8",
"r. c #BEB7B5",
"t. c #B3A7A2",
"y. c #C39D82",
"u. c #C79D8B",
"i. c #D89583",
"p. c #E79A86",
"a. c #F79D84",
"s. c #C6A181",
"d. c #CBA583",
"f. c #CEA986",
"g. c #C8A58D",
"h. c #D2AA86",
"j. c #D4AE8A",
"k. c #D0A28E",
"l. c #D7B08C",
"z. c #DBB38D",
"x. c #DBB087",
"c. c #C3AB9A",
"v. c #CAA894",
"b. c #D2A591",
"n. c #D6AA95",
"m. c #DAAA95",
"M. c #D7AE99",
"N. c #DEB691",
"B. c #D9B496",
"V. c #C8B19D",
"C. c #F7A48C",
"Z. c #E1B68D",
"A. c #E4B98E",
"S. c #F9AC96",
"D. c #F9AE99",
"F. c #F5AA95",
"G. c #E5BC95",
"H. c #E9BF96",
"J. c #E3B29B",
"K. c #E6BB9A",
"L. c #FBB29D",
"P. c #E4A792",
"I. c #C2AEA0",
"U. c #CBB3A3",
"Y. c #CAB7A9",
"T. c #D3BDAC",
"R. c #D8B9A5",
"E. c #C5BDBA",
"W. c #E9B9A3",
"Q. c #FCB5A1",
"!. c #EAC097",
"~. c #ECC399",
"^. c #E6C09B",
"/. c #F1C69B",
"(. c #F4C99E",
"). c #D6C1AE",
"_. c #D5C3B4",
"`. c #DBC5B4",
"'. c #DECABA",
"]. c #D9C8B9",
"[. c #CDC2B8",
"{. c #EAC7A4",
"}. c #EBCBAC",
"|. c #EAC8A6",
" X c #F6CAA6",
".X c #ECCFB1",
"XX c #E3CCB7",
"oX c #EED2B8",
"OX c #F4D6BA",
"+X c #F3CBB4",
"@X c #81A8DE",
"#X c #84AEE7",
"$X c #D7CECA",
"%X c #DFD1C3",
"&X c #DDDADA",
"*X c #DAD3D2",
"=X c #C7C1C0",
"-X c #E3D3C2",
";X c #ECDDCC",
":X c #E9D7C5",
">X c #F5DBC5",
",X c #F2DECB",
"<X c #FCDDC6",
"1X c #E3DDD9",
"2X c #E1CFC1",
"3X c #EEE0CE",
"4X c #F4E1CE",
"5X c #FBE2CD",
"6X c #E9E2D9",
"7X c #F4E5D3",
"8X c #F9E6D3",
"9X c #F6E8D7",
"0X c #FCEAD7",
"qX c #FDECDA",
"wX c #F6E9DC",
"eX c #FEF1DE",
"rX c #E5E3E3",
"tX c #EBEAE9",
"yX c #F7EDE4",
"uX c #FFF5E2",
"iX c #FFF8E5",
"pX c #FCF3EA",
"aX c #FFFCEA",
"sX c #F2F0EF",
"dX c #FEFEFE",
"fX c #F9F7F5",
"gX c #EFEFF1",
/* pixels */
"                                                                                                        e                       ",
"                                                            S /                                       ) &.7                     ",
"                                                          e o.) L                                    .d.) ~                     ",
"                                                        e l.) ^.O.                                o.!./  XO.                    ",
"                                                      6 z.d.0 K O.e                             }  X/ 7 o.l.                    ",
"                                                    , &.(.' &X*X4.t                           L /.N.4.rX6.X.D                   ",
"                                                    }  Xh.4.dXdXdXg                         Z G.~.&.[.dXdX=X>                   ",
"                                                  P ~.^.&.E.dXfXdX=X> /  .s.s.d.d.s.O.X./ D / G.~.O.&XdXdXfXr                   ",
"                                                e N.!.!.@.&XdXdXdXgXU ^./.~.~.~.~.^.~./.~.~.G.G.~.&.q.tXdXdX6.                  ",
"                                                O.~.N.!.5.gXdXdXdXrX' !.N.G.!.G.H.G.G.G.G.G.!.G.G.^.z.' e.dX6X                  ",
"                                              L !.H.G.!.X.fXdXdXdX0.h.!.G.G.G.G.G.G.H.G.G.G.G.G.G.G.!.~.O.w.E.                  ",
"                                            4 h.!.G.G.!.' 1X$X[.$Xl.!.H.H.G.G.H.H.H.G.H.G.G.^.G.G.G.G.G.^.G.D                   ",
"                                          . _ /.G.G.G.^.@.l.j.x.Z.!.G.G.G.H.G.G.G.G.G.G.G.G.K.!.G.G.G.G.G.K.^.~                 ",
"                                        , 7 l.!.G.G.G.H.^.!.!.!.!.G.G.G.H.G.G.G.H.G.H.G.G.H.G.G.!.G.!.G.G.G.!.!.P               ",
"                                    P A P  .!.H.G.G.G.G.G.G.G.G.z.G.G.G.G.G.H.H.G.G.H.G.G.G.G.G.H.H.G.!.G.H.G.H.~.P             ",
"                                  L L / O.O.^.G.H.G.G.H.G.H.G.~.X.@./.G.G.H.G.G.G.G.G.G.G.!.G.G.G.!.z.O.H.G.G.G.H.H.A           ",
"                              7 A A , f.] G.H.G.G.G.G.G.H.H.G.G.N.Z d.~.N.G.!.G.G.G.G.^.!.N.^.!.H.G.!.X.z.!.G.G.G.~.l.5         ",
"                            6 6      .!.h.!.G.H.G.H.G.^.h.G.l.o.(.X.3.x.~.G.G.~.G.G.G.G.^.l.&.l.N.H.!.f.O.^.G.G.!.A./.o.        ",
"                          > 7     K H.H.K.G.G.G.G.G.G.!.@.N.G./ ~.O._.w.N.~.N.o.!.G.G.G.!.!.@.&.d.!.H.G.) G.!.G.G.G.G.!.K       ",
"                        > >       f.!.G.!.H.G.G.G.G.H.H.O.H.H.~ !.d.0.:Xo.~.~.~ d.~.G.G.G.!.l.O.O.H.G.!.o.d.N.!.G.G.G.~.d.      ",
"                      , >       ( (.H.!.O.N.H.G.G.G.!.z.O.!.~.) l.x.w.aXq.x./.&.( /.^.G.G.G.G.) o.N.H.!.d.s.} z.!.!.A.OX`.5     ",
"                      >         B.fX,Xx.X.H.H.H.G.G.!.d.&.~./.~ } ~.3.eX;XO.^.G.F N.!.G.!.N.~./ ] h.!.!.h./ f.} !.Z.^.5X6XZ     ",
"                    =         F 9XdXqX@.&.{.Z.G.A.G.^.&.s.!.~.( / ~.[ 0XuXI.x.(.P &.!.G.!.G.~.o.~ &./.l.~ D G._ ^.OXyX}.>XI 7   ",
"                    =         O.5XpXOX+.XXpX.XoX4X^.!.o.l.!.!.| ' !.| 0XuX-XX.(._ X.^.G.G.G.~.O.8. .!.[ R.P v.U.9.uXoX!.!.] A   ",
"                  ,         S N.G.!.N.( wXpX4XwXdX.X!. .N.pX.X{ 5.A.| qXqXeXw.~.5.P ~.^.eX}.5X5.q.P X.].>X| I.).) /.A.G.!.&.K   ",
"                  2         / !.G.!.f. . X{.^.^.oX^.Z.( ~.fX}.9.I.x.3.eX0XeXY.^.].P ~.^.:X.XOXs.-XJ / {.j.U.Y.&.) !.G.G.!.f.K   ",
"                7 7         O.~.G.~.o.&.!.G.G.G.A.!.j.D  .X.) Y.R.&.9.eX9XeXXXz.l.^ G.!.!.!.A.V.qXT j.(.X.XX_.&.X.!.G.G.!.j.Z S ",
"                Z           h.!.H.~.) l.^.G.G.H.H.!.l.o.!.z.D q.| } _.eX9XeX3Xl.f.3.~.d.( ] &.T._.3.) L 0.aXXXO.) ~.G.G.!.h.7 e ",
"                K         S N.H.H.G./ H.H.G.G.G.G.!.d.}  Xd.q.iX3.7 ].uXeXeX7XN.l.c.&.5.I.T.{ T.J 6 3 = 2 9.3XD s.!.G.G.~.h.7 e ",
"                K         L H.G.K.h.] ~.G.G.G.G.H.~.s.&.!.~ 9XaX[ 4.[ 8.;X0X7XB.c.).3.9XpXqXyXR f t.$X6XE.0 r A z.H.G.G.~.s.2 4 ",
"              K /          .~.G.~.&.X.~.G.G.G.H.G.~.d.&.' ;X-X^ 0 f f , , 4.XX'.4XeXeXeX8XuX7.Y fXI.+ w *XdXY 6 z.H.G.H.~.] #   ",
"              _ `         O.~.G.~.o.&.!.G.G.G.G.G.^...U 3X4.q e.sXdXdXrX2.'.uXeXqX0X0XqXqXqXwX7.4.dX4 O @ *XdX0 X.(.O.N.N.e     ",
"              I L         O.!.G.^.] h.!.G.H.^.G.G.~.} %X^ Y dXrX2.J 6.1XdXyX0X0X0XqXqXqXqX0XpXU @ U ; * + w dXe.D  Xy.y.o.      ",
"              ] K         f.!.G.~./ N.H.G.G.G.G.H.!.v.8.J dXdX*X4 X + @ t.pX0X0XqXqXqXqXqX0X0XS + + $ $ * + *XtXS /.A.L 7       ",
"              ] L       5 l.!.H.G.) H.G.G.G.H.G.G.~.] , tXdXrXdXT + ; $ + [.pX0XqXqXqXqXqX0XeX8 % * $ % k @ t.dX6 j.H.d./       ",
"              _ (       5 l.!.H.z._ ^.G.H.G.G.G.G.(.I g dXgXw H $ $ $ * O H uX0XqX0XqXqX0XqXeX8 : k # ; V : 6.dX0 O././.j.      ",
"              _ ]       5 z.!.H.z. .!.G.G.G.G.G.G.(.F 6.dX&X$ + * $ * : k 4 4X0X0XqXqXqXqX0XiXU + n l z n @ *X1Xe.5.Z.H.H.D     ",
"              Z ]       6 z.!.!.l.X.!.G.H.G.H.G.G./.L 6.dXrX; ; * * % k v 4 8XqX0XqXqXqXqX0XuX`.# : m c o H dXyXeX).O./.~. .    ",
"                `       5 j.!.~.f.X.~.G.G.G.G.G.G.(.P J dXdX0 : c # ; n l r uX0XqXqXqXqXqXqXqXuX7.* O O H yXpXqXeXeX3.A.!.h.    ",
"                K K       f.~.~.&. .~.G.G.H.G.G.G.~.X.f rXdX7.X m n n n + w.pX0XqXqX0XqXeX4X`.eXuX:XI.T.yXyX,X,X8XeXe.O.~.H.L   ",
"                7 D       O.~.^.&. ./.G.G.H.G.H.G.~.o.q.t.dXdXw X k k X H eX0XqXqXqXqXqXqX0X5XqX0XeXiXiX,XB.b.M.b.B.v.` K.H.}   ",
"                  5       X.~.!.s. .~.G.G.G.G.G.!./. .0.0X7XfX6XJ 6 f 7.eXqX0XeXqXqXqX0X0XqXqX0XqX0X8XeXR.m.n.n.b.k.J.{ N./.y.  ",
"                    &     _ ~.!.d. .~.G.G.H.H.G.G.~.@.w.aX0XOX>X5X+X5XpXqXqX0X0X0X0X0XeXpXpXiXuXqXuXqXqXR.J.n.k.M.b. Xy.f.{.l.5 ",
"                    =     A H.!.f.X.~.G.G.G.G.H.G.^.&.^ qX{.u.m.Q.u.b.XXqX0XuXeXiXuXeX`.g.d.c.oX7X-X0.0X5Xk.n.J.J.K.<XI.@.~.A.e ",
"                      =   7 l.~.l.X.!.G.G.G.G.G.G.K.j.J <XP.k. XM.b.J.oXpXT.7.E.9.y.G m M M b m G 2.4.uX8X5X>X<X5X5XeXe.#./.G.K ",
"                            @.(.z.] !.H.G.H.H.G.G.H.Z.r W.u.W.W.u.m. X5XpXu.c ' v V N C C C C C N G G 7XqXeXeXqXqXqXiX4.@./.~.L ",
"                            ] ~.N./ !.N.H.G.G.G.H.G.H.A T.m.K.J.J.+X<XeX3XG B M B C C C C N N N C B m XXeXqXqXqXqX0XqX[ G.G.~.I ",
"                            K H.H.] N.d.G.G.H.G.H.H.K./ I.,X<X5XqXeX0XpX).b B Q %.%.C.C.%.%.Q N V C b R.eX0XqXqXqXeXY...~.G.~._ ",
"                            7 j.(.( z.f.G.H.G.G.H.G.!.) 3.uXeXqXqX0X0XpXb.! C.Q.L.L.L.L.L.L.L.C.Q N M M.uX0XqXqXeX7X^ H.H.G.!./ ",
"                              X.(. .f.l.z.H.G.G.G.G.^.o./ 3XeXqXqX0X0XuXv.p.Q.D.D.D.F.D.D.D.D.D.Q.%.v U.iX0X0XqXeX^ f.!.G.G.~.~ ",
"                              O.(.O.O.z.h.^.H.H.G.G.~.f.( ).uX0XqXqX0XuXY.p.L.D.D.D.D.D.D.D.D.D.L.Q.W XXeX9XeXeX^ O.~.G.G.G.!.P ",
"                              s./.j. .Z.d.!.G.G.G.G.!.l...9.eX0XqXqX0XuX%Xi.Q.D.D.D.D.D.D.D.D.D.L.p.5.qXqXiX;X[ &.~.H.H.H.H.H.A ",
"                              O./.G.( N.&.!.G.G.H.G.!.N.X.O.:XeX0XqXqXqXeX5.p.Q.L.D.D.D.D.D.Q.F.i.7.7XiX9XI./ l.^.G.G.^.z.8X.X< ",
"              6 f 6.t.f 2     O.~.~.) l.s.N.G.!.H.G.G.~.( @.c.aXqX0X0X0XqX7X5.i.P.S.S.S.C.i.$.u.XXiX9XY.^ / ~.!.!.A.G.eX}.pXT.# ",
"    0     6.e.r.tXdX6.f 4     O.^.~.O.O.j.l.!.G.G.H.G./.( P  .4.8XeXuXuXqXyXqX`.c.u.5.5.c.Y.;XuX;X9.X.) ..d.G.G.A..X.X9X.X<X| = ",
"    Y 2 E.gX6XdXdXr.          @.~.!.z.] l.s.~.A.G.G.N.|.'.~ &.t f R q.].,XqX0XyXyXqXwX8X:XY.7.Y X.d.!.G.O.O.z.!.G.{.~.A.A.A./ 7 ",
"    g $XdXfXdXdXtXJ           v.OXZ.H.( l.g.G.^.A.|.|.oXdX3.e ~ i a a 1 T uX0X0X0XeXq.r 9 p i p O.(.G.z.&.O.f.~.G.G.G.G.~.l.F   ",
"    t.0XfXdXfXdXE.            XXpX}. XO.g.1Xz.!.|.,X9X}.dXT 3 q 0 i -.a J pX0X0XqXeXT.5 9 -.h h 2 o.(.l.s.} O./.G.G.G.A./.~ S   ",
"  g |.7XdX}.yXyXT           < XX,X:XOXz./ '.f.!..X}.|.H.OX..a p p *.s =.q -XpXeXqXqXwXq p *.h h 9 0 l.l.s.K O./.G.G.G.!.z.6 e   ",
"  ] ~.oX~.Z.|.l.6           A G.N.d.H.~. .@.d.!.A.G.A.G.G.x.u *.q s *.=.p 0 XX:X3XeX`.= a *.*.a p ;.^ l.) ) d.^.G.G.G.~.(   2   ",
"2 f.~.A.G.H.H.h.            P !.N.@.K.H.N./ z.l.H.G.G.H.H.!.H h a p *.h =.= J -.2.Y q = h h *.p p <.,.S  .d.&.~.G.G.~.&.        ",
"7 G.H.!.G.G.H.j.5           } /.N.o.~.G./.} @.H.G.H.G.G.G.~.) p -.p i *.*.u y <.>.>.3 2 *.*.s p a >.1.H (.@.@.~.G.~.j.7         ",
"e G.G.G.H.G.H.G.A           d.~.N.] j.G.H.N.I G.G.G.G.H.G.!.j.q *.h q h *.h 3 ,.1.>.2 i *.h q h i :.#X:.o.O.j.H.^.z.e           ",
"L H.G.G.G.G.G.~._         K G.!.A.( @.G.G./.....~.G.G.G.G.G.~.H a *.p p h *.q 2 <.y 2 s *.i u =.u ,.@X@X=.( !.G.G.S             "
};
