/* XPM */
static char *brick[] = {
/* columns rows colors chars-per-pixel */
"64 64 55 1 ",
"  c #58575B",
". c #55585B",
"X c #5C5C5E",
"o c #60605F",
"O c #5E5D61",
"+ c #605F63",
"@ c #5E6060",
"# c #656565",
"$ c #686767",
"% c #666669",
"& c #68676B",
"* c #66696A",
"= c #6B6B6C",
"- c #706F6F",
"; c #6F706F",
": c #6E6D71",
"> c #706F73",
", c #6E7071",
"< c #737274",
"1 c #787777",
"2 c #767579",
"3 c #78777B",
"4 c #767979",
"5 c #7C7C7D",
"6 c #807F7F",
"7 c #80807F",
"8 c #7E7D81",
"9 c #807F84",
"0 c #7F8184",
"q c #848484",
"w c #888787",
"e c #858887",
"r c #888887",
"t c #86858A",
"y c #88878C",
"u c #868889",
"i c #8B8A8C",
"p c #908E8F",
"a c #8F908F",
"s c #92928F",
"d c #8D8C91",
"f c #908F94",
"g c #8F9191",
"h c #929295",
"j c #979894",
"k c #989995",
"l c #959499",
"z c #98979C",
"x c #979999",
"c c #9A999D",
"v c #A1A19F",
"b c #9D9CA1",
"n c #A09FA4",
"m c #A1A1A4",
"M c #A5A4A9",
/* pixels */
"q55q1$7575557rirrrq71$155qq8552155565:iyy8339889y889t&59569q57rq",
"riiii;hashaiajahklirr=qqrqitqqyrriipi5bzfyddffddldfff2hrryiiihkp",
"riksr;rqairiisrajirri<qrdtyt9q6rqrrrq8zlfydzfdfdzfdfi2rqiqrqriii",
"riahq=qqq7rrirqiahisa=qiaiqq8qrqqrqiq3lzlfhhldddlflzd$96qyqqirli",
"ihsir=qqqqq7rriihhiil:y8ritqteirqrryy<lzxhcllhifdlizf&95qqqqhihi",
"=$$=*#*$$$$$$$@=:2822:>:51<:<:+=-==<=:<<<<<<22$<>>-<>$$=$=$>:<#$",
"5777qqq8rrqqq8=dddzldhfbblddfy:qr9qqrrrrrriiii<iqiirqriiisrrrr$5",
"7777qq55qqqrqq:dhddlddlfddhdid:9r7qqqqyirrrrri>rqfpiiripiirqqr$q",
"q791qqqtqqrgqr:ydflbddfdllhhdd=qrqqqq7ss55qiii>ryiriiiidhriqqq$q",
"765559tyrqihsi&idflffdddlzhhdi=rqqqrq7rr5qqrit$irrqpiipyiiqqqq$6",
"$%%%%&:&*=,::%O::>28>>:&<<<-<=o;$-$$$$*$&&==:&O:=>=2<>:&-:<:=& %",
"yyydfhf<tiiddyyydlfblyd8qrijhlhippriiiq$ddhdyyyyyflfhfy:iiddfffd",
"iyydfff<tyydyyyyydflydd3rrhiijiishaiiir<dytyydydfldfldd2ddyyhdff",
"lydyydz2ydydfddydddfllg4edshihiajhaiiar<yyytyyddfhffldy2ydddidfc",
"yyytddd<ddyddydyydddtdd8rjcsrieglkhrrri-lytdyyddlbfdddd2ddffdddf",
"8883388=8t888833888888t,5qq75q58rrq5151#t9588888tdyty98:8899988t",
"8%65652115212221<$8t8yy0t8011<<14;04545151<<210q82dt898338988888",
"d>hhhiyrqhrqqrrrq=ddfllddyytdddy04xur07eqqyreriiy8lldiddyfdyyyyy",
"f5fiiiq7qqrrqiriq5dllflzfddfydydu0kgeueeqiqreriid2dyfdihdfdfyyyf",
"z3ppijiqqeirrisir8zzbbbmbncfdttt00vckhghliq9qqqdy<ddlhlzblzzfdbb",
"b5fhrqirqtqdhsjha7vcbbMbbccffyt800kvnzxghireq0qe8<ddhmmcbbbbblbb",
"2:<:=<<1<:O======*;;<22225#:::::444448441<$,;;==:>2<<2<<=:O&>222",
"ffyytdlMzg=qqrqrrie0uaigdn8ytyyylcxbzbblbx5aipiiihliirrrtq&ddddd",
"fiyyyihcih;7qrrqrieriugggb:ddldflbbbbmnnbx4eqjhiiiqriiiqqq&yydfd",
"fdffyddddf=0rrrqeaeeaeghgg4edfyyzzblfblfhl<trrireriqeqtttq,yydly",
"dfddyiyylf*errrqruaau0aggg,glbbfzbbfyflfif=rqqqqqrrqqqt0qr,ydddy",
"<32:::==*:.*====*<<;:=,<24@4288>224:*:::=>X=$$$$$$$#==::*,%28,:,",
"ydl2rqqqq50q7riiaae;zllllbfllffdgll8iqttqrr7q7qqrid<hdyyiyydddlf",
"flf<dyq65077qrrqrer-xhzffzblfbbfdll5daeqqrirq77qrrd<byyyydfflbbf",
"llb:dreeq57qqqrereq=lhdfbdllblblzlf2iairqrqiqqqriii=ffydyflldlll",
"flb>irirq7q77qqqeri<ddhlgdfflbbbzld<jshrqrqrqrqqqri=yyyfflbfllff",
"80t&q51155155151555$qt9yt0ttttydyq8$qe5551551112555$880y0yy88d08",
"51575q552211$<1105151557557q<55125115177q557=-165515577qq511=<<5",
"rasiiirq7rqr25irrrirrrrirrra7qritrrrrriissir55errrriisjjasiq15re",
"iirriiryrrrq<7itrrrririiirraeeiiiirrriaissri57iiirriaajsjhai17ir",
"rrraisqqrqqr15ddieririiirias55siiirqriiisiri57sipiriisjjsrar<5ri",
"rqqipiqqrqq7>9dyieqqrirriaas56sirrqqqrirrrri55iiiaiipjjjsii7<7s7",
"=$<$==#$$:==%:>::<:::=$=$$$$%$$###$%$$o=;=$$$$<=-=$=$=o--=;-=;--",
"rqrqqt:yyyiyydffddtdit<r7ee7q9q8557q7i$q7765r7rr777r77=riissirri",
"7q7q59:yyyyyydfdtttifi<qr777q515555qri=q7q56q7qqr7rqri-irriir7r7",
"qq9q57$t9yyyddfy9tyydf<dqqq77555157qyi=qqqq79qqri7767r-siisirr77",
"rqq9qq&yydyydyy99tyydf<ritr857q85556qq=q7qrqqqqriq76rq-iisrrrqqr",
"=&&:&:X=&&>>>>:&:&::>:+<<>::===#=%$$::O:&%,::::$-=$#$=#<<-====-$",
"rdyiyidddddzbfy8dyddddyddffllhy<fhfiddllydiyifh<q776777rr77rqrq<",
"d9yyyyddflfflfd<fdfdfdffdzlzdlh<hcxhhlzzddfdydh<qr7r776rq5qrqqr>",
"fydyyyydzfflffd2blfddyfdzlhldld2bnbdlzbllfddddh<777r6r5777qiqqq:",
"lydy999yyfzbfbl8bdfdfdffdllddde2bcchdlhddyddydi:777r575q7qqir75-",
"98998<228899y9y:y9y9999988q8q8q*yti08tqq082888q=5<11<<11515qq1<&",
"88df9999:99yyy9dd8888888888yqq75544<155q:5155r5q75511112o59q9qq8",
"dfbllhlf2lbflldbfblddddd:9dzxiiieaeaiiaa2qqirihjsir7qrqi$fflllld",
"dflbnllf>llfdddfdbffdfdd<tthhkiiereiaahr,0isilkjsrq75qqi:dyffddy",
"fflbMclf<blddddfddbdddld:qqqexiiieriiiii;qrisjclsiq7qqqr:idddddd",
"dbzcvlhh2lffddfdddfddyfd<tyttiuyeeeerrir=qrajkkhrqrqr7qi:didydyd",
"&%=--===&===%::>>&&>888>:><<=:::;$o*-=======-==>$$=--=$::<&=&>::",
"t35iq7rq6q6769yid88ldfllflfddyyyiq<errrirsreqrrq756sarrghhqr9rtq",
"955yqqqq6976qttid98fldlflfddddddiq<rqqrqirrrriqqqq5pjrriiirqqq6q",
"11<q5qt99q65qqrqtt8bdtffflfd9ybfdt2qqqryrrrqqirqqq2sshpqrqrqq67q",
"q1=55598q7665qqqy88ff9yfddfdldffy0>tq5qrrqriiirqrr=isirrq5596565",
"$%O$#$&%$$#X#$$$::O88&:>:8>&>22&::#:%%=$=:<==<-$==o=====&##+&&$$",
"diyytt9diyt#qttdddfdy9yyd9d2dfddfdfydyidhlz2lhsqirq7qqr77q5:iyiy",
"ddyt9ttyddy&9ttylfdlfy9ydfd>dddddfdyyidylfl2hsiiii7qr7irqqq&ittd",
"ddyty8yytyy&9t9dldlffdddyfl>dddydfyyydylzzd<sjrqrrrsiriirqt:dy9d",
"ytty9dtdyy9:fydlzfd89ddddlf:99yyydfdyddddlf<qpir7qqirpsryqy:yfdy",
"88888888888&89998888888y99y&28898888898yq85$5551555q9666553%8yy9"
};
