/* XPM */
static char *burger[] = {
/* columns rows colors chars-per-pixel */
"16 16 21 1 ",
"  c #000001",
". c #7D350A",
"X c #CF1F11",
"o c red",
"O c #D53D22",
"+ c #914C13",
"@ c #DC5B33",
"# c #E37A44",
"$ c #4CCD30",
"% c #EF8C22",
"& c #F19935",
"* c #FBCE3A",
"= c #F3A548",
"- c #F5B15B",
"; c #8CD653",
": c #9FF55E",
"> c #AEEF66",
", c #B4ED66",
"< c #B7F269",
"1 c #B2FB6C",
"2 c #B8FF70",
/* pixels */
"    %%%%%%%%    ",
"  %%-&&&&&&&%%  ",
" -&&========&-% ",
"%&=======-====&%",
"%===-==========%",
"%===========-==%",
" @**#***O**O**  ",
"@###@@@O;OOXXX; ",
"2:2;22;:>2:21:22",
";222:22<:22;:,2;",
" ..;o+;...o+;.. ",
"+......o+....o+.",
" $o+.$......$.o ",
"&==============&",
"%&&&&&&&&&&&&&&%",
"%%%%%%%%%%%%%%%%"
};
