/* XPM */
static char *a5327fe4df92470eaee92cc4d35a9d98LnSoGy3ZJ5Zxnk7p[] = {
/* columns rows colors chars-per-pixel */
"64 58 197 2 ",
"   c None",
".  c #5C342E",
"X  c #4F3B36",
"o  c #4F3E38",
"O  c #5B3630",
"+  c #513D37",
"@  c #5C3933",
"#  c #533E39",
"$  c #5E3F39",
"%  c #623A33",
"&  c #6C3A31",
"*  c #633730",
"=  c #55423C",
"-  c #5A453D",
";  c #5E483F",
":  c #69443E",
">  c #5A4541",
",  c #5E4943",
"<  c #5E494D",
"1  c #574547",
"2  c #5B5259",
"3  c #624C43",
"4  c #634E49",
"5  c #64514B",
"6  c #6C5449",
"7  c #685146",
"8  c #72544C",
"9  c #735B4D",
"0  c #785D4F",
"q  c #614D52",
"w  c #64515D",
"e  c #6B5755",
"r  c #7A5F51",
"t  c #7D6253",
"y  c #78645C",
"u  c #695565",
"i  c #6C596B",
"p  c #6A5666",
"a  c #6E5B71",
"s  c #715E75",
"d  c #7A6863",
"f  c #676676",
"g  c #75637E",
"h  c #A53F30",
"j  c #B44130",
"k  c #BC4D36",
"l  c #C3422F",
"z  c #CE422F",
"x  c #DC432E",
"c  c #C5583A",
"v  c #D85B38",
"b  c #E4442E",
"n  c #EC5E37",
"m  c #F15E36",
"M  c #F1623A",
"N  c #825F56",
"B  c #826655",
"V  c #846857",
"C  c #82665A",
"Z  c #846A5A",
"A  c #8A6D5B",
"S  c #8D715E",
"D  c #90725E",
"F  c #98604F",
"G  c #846D63",
"H  c #8B7165",
"J  c #84726B",
"K  c #8B746B",
"L  c #8A756A",
"P  c #937562",
"I  c #967963",
"U  c #9B7C66",
"Y  c #9D7E68",
"T  c #987366",
"R  c #897872",
"E  c #937D73",
"W  c #9C7E73",
"Q  c #936E63",
"!  c #A27C6E",
"~  c #F26741",
"^  c #F47957",
"/  c #9F806A",
"(  c #978175",
")  c #9B8175",
"_  c #99857B",
"`  c #A3836B",
"'  c #A9876E",
"]  c #AA886E",
"[  c #A7886F",
"{  c #AC8B71",
"}  c #AA897A",
"|  c #B08E73",
" . c #B28C7C",
".. c #B49175",
"X. c #B79579",
"o. c #B9957A",
"O. c #BC997B",
"+. c #B89577",
"@. c #C29E7E",
"#. c #6C7995",
"$. c #748DB6",
"%. c #7791BA",
"&. c #7A9AC9",
"*. c #7997C6",
"=. c #7B9ED2",
"-. c #7FA3D6",
";. c #988984",
":. c #A48E82",
">. c #A59184",
",. c #AA9589",
"<. c #BD9382",
"1. c #B29B8C",
"2. c #B59383",
"3. c #A59995",
"4. c #B29E91",
"5. c #B5A193",
"6. c #BEAA9C",
"7. c #B8A497",
"8. c #ADA4A1",
"9. c #B3A9A5",
"0. c #B6A9A6",
"q. c #BBB2AF",
"w. c #C79C8A",
"e. c #D09382",
"r. c #F79C83",
"t. c #C5A181",
"y. c #CAA584",
"u. c #CEA886",
"i. c #D0AA87",
"p. c #D3AD8A",
"a. c #DBB38E",
"s. c #D7B08B",
"d. c #C2AD9E",
"f. c #C4A290",
"g. c #D6A893",
"h. c #DFB791",
"j. c #DDBD9E",
"k. c #F4AA96",
"l. c #F9AE99",
"z. c #F8AC96",
"x. c #E6BD95",
"c. c #E2B39D",
"v. c #E7BF99",
"b. c #F8A48D",
"n. c #CAB5A5",
"m. c #CAB7A8",
"M. c #D0BAAA",
"N. c #C7BDBB",
"B. c #EBB9A2",
"V. c #F2BEA6",
"C. c #E7C09A",
"Z. c #E8C19C",
"A. c #D5C2B2",
"S. c #DDCABA",
"D. c #D9C6B5",
"F. c #D7C0AF",
"G. c #E9C6A3",
"H. c #EBCBAB",
"J. c #E7C7A8",
"K. c #FAC6AD",
"L. c #F3C0A8",
"P. c #E2CEBD",
"I. c #E9CCB0",
"U. c #F7CAB3",
"Y. c #EED1B4",
"T. c #EED5BC",
"R. c #F8D3BC",
"E. c #DAD6D4",
"W. c #D1C9C6",
"Q. c #E6D3C2",
"!. c #EBD6C4",
"~. c #EDDBC9",
"^. c #E8D9CA",
"/. c #F2DECB",
"(. c #F6DAC3",
"). c #E4DDD9",
"_. c #F4E1CE",
"`. c #FDE1CC",
"'. c #EAE3DE",
"]. c #F6E3D2",
"[. c #F9E6D4",
"{. c #FCE9D6",
"}. c #FEECD9",
"|. c #FEECD9",
" X c #F7E8DA",
".X c #EBE8E7",
"XX c #F4ECE6",
"oX c #FCF1E6",
"OX c #FCF4EC",
"+X c #F1F0EF",
"@X c #F5F4F4",
"#X c #FCF7F1",
"$X c #FEF9F3",
"%X c white",
"&X c #FEFEFE",
"*X c #FDFCFC",
"=X c #FDFDFC",
/* pixels */
"                                                              o                                         V                       ",
"                                                            6 p.                                    o u.X.-                     ",
"                                                          V p...P                                 = a...s./                     ",
"                                                        U x.t h.h.                              : h.x.[ x.x.                    ",
"                                                      A x.t.;.5 / 6                           = C.x.Z 3.9 h.=                   ",
"                                                    0 x.x.y &X&X*X7                         + h.x.x.q.&X&X8.6                   ",
"                                                  7 x.x.x.N.&X&X&X8.o 3 t I { ..{ Y A t 6 # @.x.x.h.+X&X&X&X-                   ",
"                                                = x.x.x.a.*X&X&X&X&X; x.x.x.x.x.x.x.x.x.x.x.x.x.x.@.E.&X&X&XR                   ",
"                                                y.x.x.x...&X&X&X&X&Xt v.x.x.x.x.x.x.x.x.x.x.x.x.x.x.x.S E.&X&X                  ",
"                                              B x.x.x.x.P &X&X&X&X7.x.x.x.x.x.x.x.x.x.x.x.x.x.x.x.x.x.x.a.E @X                  ",
"                                            = x.x.x.x.x.A .X6.>.^.x.x.x.x.x.x.x.x.x.C.x.C.x.x.x.x.x.x.x.x.x.U                   ",
"                                          + @.x.x.x.x.x.y.x.x.x.x.x.x.x.x.x.x.x.x.x.x.x.x.x.x.x.x.x.x.x.x.x.x.@.                ",
"                                        - r x.x.x.x.x.x.x.x.C.x.v.x.x.x.x.x.x.x.x.x.x.x.x.x.x.x.x.x.x.x.x.x.x.x.u.              ",
"                                    ` A h.+.x.x.x.x.x.x.x.x.x.x...x.x.x.x.x.v.x.x.x.x.x.x.x.x.x.x.x.x.x.x.x.x.x.x.s.            ",
"                                9 { : @.I x.x.x.x.C.x.x.x.x.x.x.x.I x.x.x.x.x.x.x.x.x.x.x.x.x.x.x.x.x.S x.x.x.x.x.x.t.          ",
"                              0 7   V x.] x.x.x.x.x.x.x.x.x.x.i.x.Z Y x.x.x.x.x.x.x.x.C.x.x.h.x.x.C.x.a.x.x.x.x.x.x.x./         ",
"                          = S     3 C.x.x.x.x.x.x.x.x.C.@.x.x.V C.t.|./ C.C.C.a.x.x.x.x.x.x.` h.x.x.x.x.A x.x.x.x.x.x.x.:       ",
"                        = :       a.x.x.x.x.x.x.x.x.x.x.U x.C.r C.x.A.~.@.h.C.A x.x.x.x.x.x.x.u./ x.x.x.| x.x.x.x.x.x.C.a.      ",
"                      = -       P C.x.x...x.x.x.x.x.x.x...x.x.D C.x.} |.O.C.h.h.| x.x.x.x.x.x.t ' x.x.x.x.s.V C.C.x.x.Y.J.6     ",
"                      -         Z.$X].x.` x.x.x.x.x.x.x.s.x.x.` u.x.A }.}.| C.x.7 x.x.x.x.x.x.I s.x.x.x.x.B x...x.x.C.Y.#X`     ",
"                    +         A oX$X|.a.a.C.C.x.x.x.x.p.x.x.x.` / C.t }.}.n.C.x.S x.x.x.x.x.x.O.+.y.x.x.S 6 x.A C._.#Xx.(.r ;   ",
"                    X         x.H.oXC.U ].$X(.Y.#Xx.x...x.C.x.S t C.A }.}.}.| C.O.u.x.x.x.x.x.o.1.I x.E G.G o.'.p.oXH.x.C.[ /   ",
"                  -         7 x.x.x.x.S  XoX].Y.#XC.x.A x.$XH.V S C.y }.}.}.} C.j.H x.x.$XC.oXo.!.0 E T.H.H ( Z.` x.x.x.C.a.o.  ",
"                  4         { x.x.x.x.i.x.x.x.x.x.x.x.t x._.C.4.( C.H }.}.}.^.C.T./ x.x.C.C.C.U  X7.i.x.h.S.M.x.V x.x.x.x.x./   ",
"                8           x.x.x.x...x.x.x.x.x.x.x.x.] h.+.0 S.( x.n.}.}.}.}.a.h.4.x.v.h.i.x.,.[.E x.x.U {./.h.A x.x.x.x.x.6 - ",
"                o.        - x.x.x.v.t x.x.x.x.x.x.x.x.@.x.x.H  Xy V  X{.}.}.}.y.x.M.x./ t A.` Q.>.E = + ,. X Xs.@.x.x.x.x.x.- : ",
"                o.        6 x.x.x.x.D x.x.x.x.x.x.x.x.p.C.I {. XL 6.G S.{.{.}.C.{ D.T [.|.|. Xm.> ;.).W.J = m.; x.x.x.x.C.x.  - ",
"              - P         ..x.x.x.x.t.x.x.x.x.x.x.x.a.h.` ~.|.m.- - - 5 - ( A.5.{.|.|.|.|.|.m.J &XR . 8 @X&Xe G x.x.x.x.x.{     ",
"              9 S         u.x.x.x.u.x.x.x.x.x.x.x.x.i.` [.5.> q.@X&X=X+XR _.}.}.|.|.|.|.|.|.{.P.0.*XO . . +X&X; s.x.] x.x.,     ",
"              S 9         x.x.x.x.` x.x.x.x.x.x.x.x.@. XJ 3.&X@Xd 5 ( .X=X{.}.}.|.|.|.|.|.|.|.N . 8 . . . % &XE.I x.x.u.+.      ",
"              Y 9         x.x.x.x.B x.x.x.x.x.x.x.x.O.} >.&X&X+X8 . . . R oX}.}.|.|.|.|.|.|.|.% . O . . . . .X=X; x.x.t 3       ",
"              I t       = x.x.x.x.r x.x.x.x.x.x.C.x.| # &X&X3.=X: . . . . q.}.}.|.|.|.|.|.|.{.* O O . . z * 0.=X+ x.C.a.u.      ",
"              B P       = x.x.x.x.A x.x.x.x.x.x.x.x.[ R *X*XO @ . . . . . $ |.|.|.|.|.|.|.|.|.: O l O & b * N.&XE ` x.x.x.=     ",
"              3 O.      = C.x.x.x.` x.x.x.x.x.x.x.x.` 8.*X*XO O . . . & b O |.|.|.|.|.|.|.|.|.5.. l b b h . =X#X|.1.x.x.x.I     ",
"                h.      = x.x.x.x.+.x.C.x.x.x.x.x.x...;.*X*XO * O O . l x $ |.|.|.|.|.|.|.|.|.|.: . O O . W.$X|.|.|.I x.x.x.    ",
"                ` 3       x.x.x.x.@.x.x.x.x.C.x.x.C.w.4 *X*XJ . b h h b & E |.|.|.|.|.|.|.|./.|.|.d.C ) XX|.|.|.|.|.d.x.x.x.7   ",
"                # r       x.C.x.x.@.C.C.x.x.x.x.x.x.i.!.9.&X*XO * l l * $ |.|.|.|.|.|.|.|.|. X|.|.|.|.|.|.f.c.L.g.w.1.I x.x.[   ",
"                  D       @.x.x.x.@.x.C.x.x.x.x.x.x.s.D.[.|.#XXX4 $ % _ |.|.|.|.|.|.|.|.|.|.|.|.|.|.|.|.Y.L. .w.c.K.V.r x.x.h.  ",
"                    X     U x.x.x.@.x.x.x.x.x.x.x.x.h.d.|.|.].`.(.R./.|.|.|.|.|.|.|.|.|.|.|.|.|.|.|.|.|.2.V.V.g.<.<.K.2.x.x.x.= ",
"                    X     ; x.x.x.@.x.x.x.x.x.x.x.x.x.L /.K.{ <.K.g.w.d.|.|.|.|.|.|.|.P.} ! 1.~.{.{.K |.{. .w.V.K.B.U.Q.x.x.x.- ",
"                      :   : C.x.x.` x.x.x.x.x.x.x.x.x.- U.g.g.K.@.e.K.`.|.M.Q ;.Q F c m m m m m c A.K |.|.|.{.{.{.|.|.D.h.x.x.9 ",
"                            p.x.x.A x.x.x.x.C.x.x.x.x.- R.c.B.B.V.c.K.|.|.Q n Q m m m m m m m m n c v |.|.|.|.|.|.|.|.( x.x.x.S ",
"                            / C.x.N x.@.x.x.x.x.x.x.x.B !. .K.c.R.`.|.|.|.v m m m M ~ ~ m m m m n m m !.|.|.|.|.|.|.|.S x.x.x./ ",
"                            3 C.x.V x...x.x.x.x.x.x.x.B >.|.|.|.|.|.|.|.S.m ^ z.l.l.l.l.l.l.b.^ m m m n.|.|.|.|.|.|.:.x.x.x.x.[ ",
"                              Z.@.@.C.@.x.x.x.x.x.x.x.{ ` |.|.|.|.|.|.|.7.r.l.l.l.l.l.l.l.l.l.l.l.~ m M.|.|.|.|.|.D.y.x.x.x.x.` ",
"                              @.Z.C.@.h.x.x.x.x.x.v.x.a.h./.|.|.|.|.|.|.d.l.l.l.l.l.l.l.l.l.l.l.l.l.n /.|.|.|.|.A.{ x.x.x.x.x.V ",
"                              Z.C.C.] x.@.x.x.C.x.x.x.x.y.E |.|.|.|.|.|._.k.l.l.l.l.l.l.l.l.l.l.l.l.T |.|.|.|.,.t.x.x.x.x.x.x.6 ",
"                              @.x.C.B C.@.x.x.x.x.x.x.x.P X.|.|.|.|.|.|.|.T l.l.l.l.l.l.l.l.l.l.k.W |.|.{.Q.Z x.x.x.x.x.x.].H.+ ",
"              > < 3.8.5       h.x.x.` x.{ x.x.x.x.x.x.v.A x.4.|.|.|.|.|.|.|.W k.l.l.l.l.l.k.e.! ].|.|.S.Z ` x.x.x.x.x.OXG.#XI.+ ",
"    e     8.E.N.&X&Xd ,       h.x.x.x.y.s.x.x.x.x.x.x.x.y.D O.,.|.|.|.|.|.|.|.[.n.:.W W 4.!.|.|.~._ ` x.O.Y x.x.x.H.G.{.G.Y.{ - ",
"    3.> @X.X*X&X&X9.          h.x.x.x.B x.u.x.x.x.x.x.v.#XO.' N i q G f._.|.|.|.|.|.|.[.D.E e w x.x.x.x.` ..x.x.x.x.x.x.x.x.B = ",
"    y $X&X*X*X&X=X            G./.x.x.| x.4.x.x.x.H./.Y.$XZ $ C : #.#.s W |.|.|.|.|.:.3 w #.g g A x.x.x.[ +.x.x.x.x.x.x.x.h.|   ",
"    XXG.&X$X&X&X3.            (.OX[.Z.x.` '.x.x.{.Y.[.G.#X' #.$ i q J #.> |.|.|.|.|.^.> i s g g < H x.x.../ x.x.x.x.x.x.x.9 ]   ",
"  Z x.@XT.x.T.H.;           3 C.H.G.v.x.D v.+.x.x.x.v.x.x.x.i g q #.s a a 4.|.|.|.|.|.# g g g g u 2 w.x.s.` i.x.x.x.x.x.i.  9   ",
"  x.x.x.x.x.x.x.            9 x.x.@.x.x.x.{ y.x.x.x.x.x.x.x.< g s a g g s O ;.d d.J 4.# g g #.i g *.f t.S x.i.x.x.x.x.x.>       ",
"- x.x.x.x.x.x.x.            ` x.x.' x.x.x.Y x.x.x.x.x.x.x.x.` g g w g g #.u f #.#.$.# < s s s < g &.-.r x.h.h.x.x.x.x.t   +     ",
"9 x.x.x.C.x.x.x.3           h.x.x.` u.x.x.x.A x.x.x.x.x.x.c.k.w g g : #.a g % *.-.*.= w g g w g g &.-.%.s.o.x.x.x.x.0           ",
"Y x.x.x.x.x.x.x.P         8 x.x.x.A ` x.x.x.u.i.x.x.x.x.x.c.k.q g g g i g g a < &.2 w g g g u g g $.-.-.f I x.x.x.9             "
};
