/* XPM */
static char *_c90fad97f05421d8b3c6b57096014d7zO6bjKAP7kOCvEcX[] = {
/* columns rows colors chars-per-pixel */
"64 64 135 2 ",
"   c #00FF25",
".  c #005F0E",
"X  c black",
"o  c #008714",
"O  c #00FD25",
"+  c #001D04",
"@  c #009A16",
"#  c #00F123",
"$  c #007E12",
"%  c #002E07",
"&  c #000D02",
"*  c #000601",
"=  c #00580D",
"-  c #00CC1E",
";  c #00670F",
":  c #00C71D",
">  c #00BA1B",
",  c #003708",
"<  c #00ED22",
"1  c #002806",
"2  c #000300",
"3  c #00AA19",
"4  c #00A017",
"5  c #00B71B",
"6  c #00DE20",
"7  c #00590D",
"8  c #00D31F",
"9  c #007511",
"0  c #005D0D",
"q  c #00AD19",
"w  c #00B41A",
"e  c #007411",
"r  c #000100",
"t  c #001102",
"y  c #00F524",
"u  c #00D51F",
"i  c #00500C",
"p  c #009516",
"a  c #00F023",
"s  c #00DF20",
"d  c #000801",
"f  c #002405",
"g  c #007010",
"h  c #00610E",
"j  c #006F10",
"k  c #00CF1E",
"l  c #009716",
"z  c #00AB19",
"x  c #001E04",
"c  c #001303",
"v  c #00F924",
"b  c #00440A",
"n  c #000200",
"m  c #008D14",
"M  c #00F223",
"N  c #00EF23",
"B  c #00D71F",
"V  c #00A418",
"C  c #00BB1B",
"Z  c #00BF1C",
"A  c #003608",
"S  c #00F724",
"D  c #007611",
"F  c #00A919",
"G  c #000701",
"H  c #004109",
"J  c #008213",
"K  c #00CE1E",
"L  c #000B02",
"P  c #005C0D",
"I  c #00D01E",
"U  c #00460A",
"Y  c #007C12",
"T  c #003508",
"R  c #00D21E",
"E  c #002A06",
"W  c #00E021",
"Q  c #00E221",
"!  c #00FC25",
"~  c #001803",
"^  c #000501",
"/  c #00B21A",
"(  c #00550C",
")  c #007F12",
"_  c #00E822",
"`  c #00A318",
"'  c #007711",
"]  c #00B31A",
"[  c #004B0B",
"{  c #003207",
"}  c #009015",
"|  c #00E922",
" . c #004A0B",
".. c #00520C",
"X. c #00B81B",
"o. c #00F423",
"O. c #00C81D",
"+. c #00CB1D",
"@. c #00EB22",
"#. c #00540C",
"$. c #002D07",
"%. c #009415",
"&. c #008413",
"*. c #001603",
"=. c #00AC19",
"-. c #00430A",
";. c #008814",
":. c #001503",
">. c #00E521",
",. c #002205",
"<. c #005A0D",
"1. c #00FE25",
"2. c #002F07",
"3. c #003007",
"4. c #00450A",
"5. c #00A218",
"6. c #00F323",
"7. c #002C06",
"8. c #00EA22",
"9. c #00B01A",
"0. c #009115",
"q. c #004E0B",
"w. c #00F824",
"e. c #00D11E",
"r. c #008513",
"t. c #00420A",
"y. c #003E09",
"u. c #00D91F",
"i. c #008013",
"p. c #00B51A",
"a. c #00A117",
"s. c #003C09",
"d. c #004D0B",
"f. c #002706",
"g. c #008613",
/* pixels */
"                                                                                                                                ",
"                                                                                                                                ",
"                                                                                                                                ",
"                                                                                                                                ",
"                                                                                                                                ",
"                                                                                                                                ",
"                                                                                                                                ",
"                                                                                                                                ",
"                                                                                                                                ",
"                                                                                                                                ",
"                                                                                                                                ",
"                                                                                                                                ",
"                                                                                                                                ",
"                                                                                                                                ",
"                  . X X X X X X X X X o           O + X X @               # $ % & * + = -       ; X X X X X X X X X X :         ",
"                  . X X X X X X X X X o           > X X X ,             < 1 X X X X X X 2 3     ; X X X X X X X X X X :         ",
"                  . X X 4 5 5 5 5 5 5 6           7 X X X X 8           9 X X 0 q w e r X t y   u 5 5 5 i X X p 5 5 5 a         ",
"                  . X X s                       a d X f X X g           , X f         h X X >           j X X k                 ",
"                  . X X s                       l X X z x X c v         b X n m M     N B B M           j X X k                 ",
"                  . X X V C C C C C Z           A X & S D X X F         V X X X G H J K                 j X X k                 ",
"                  . X X X X X X X X L         u X X P   I X X U           Y n X X X X X T R             j X X k                 ",
"                  . X X X X X X X X L         e X X w     E X n W           B 9 E X X X X c Q           j X X k                 ",
"                  . X X s                   ! ~ X ^ / 5 5 ( X X )                 _ ` % X X '           j X X k                 ",
"                  . X X s                   ] X X X X X X X X X x O   u [ { }         | X X  .          j X X k                 ",
"                  . X X s                   ..X X X X X X X X X X X.  | n X f o.      O.X X 7           j X X k                 ",
"                  . X X 4 5 5 5 5 5 5 +.  @.* X 1           F X X #.    ..X X $.%.z &.*.X X =.          j X X k                 ",
"                  . X X X X X X X X X -.  } X X ;.          v :.X * @.  >.,.X X X X X X X <.1.          j X X k                 ",
"                  . X X X X X X X X X -.  2.X n >.            e X X m     a ) 3.L ^ *.4.5.1.            j X X k                 ",
"                                                                                                                                ",
"                                                                                                                                ",
"                                                                                                                                ",
"                                                                                                                                ",
"                                                                                                                                ",
"                                                                                                                                ",
"                                                                                                                                ",
"                                                                                                                                ",
"                                                                                                                                ",
"                            # $ % & * + = -         [ X X 6.  . X X X X n & 3.J M         . X X X X X X X X X o                 ",
"                          < 1 X X X X X X 2 3       [ X X 6.  . X X X X X X X X 7.8.      . X X X X X X X X X o                 ",
"                          9 X X 0 q w e r X t y     [ X X 6.  . X X 4 5 9.0.2.X X q.      . X X 4 5 5 5 5 5 5 6                 ",
"                          , X f         h X X >     [ X X 6.  . X X s       w.3.X X e.    . X X s                               ",
"                          b X n m M     N B B M     [ X X 6.  . X X s         5.X X r.    . X X s                               ",
"                          V X X X G H J K           [ X X 6.  . X X s         B X X #.    . X X V C C C C C Z                   ",
"                            Y n X X X X X T R       [ X X 6.  . X X s         _ X X t.    . X X X X X X X X L                   ",
"                              B 9 E X X X X c Q     [ X X 6.  . X X s         8.X X y.    . X X X X X X X X L                   ",
"                                    _ ` % X X '     [ X X 6.  . X X s         u.X X i     . X X s                               ",
"                        u [ { }         | X X  .    [ X X 6.  . X X s         F X X i.    . X X s                               ",
"                        | n X f o.      O.X X 7     [ X X 6.  . X X s         b X X I     . X X s                               ",
"                          ..X X $.%.z &.*.X X =.    [ X X 6.  . X X 4 5 p.a.s.X X d.      . X X 4 5 5 5 5 5 5 +.                ",
"                          >.,.X X X X X X X <.1.    [ X X 6.  . X X X X X X X X f.8.      . X X X X X X X X X -.                ",
"                            a ) 3.L ^ *.4.5.1.      [ X X 6.  . X X X X r & { g.6.        . X X X X X X X X X -.                ",
"                                                                                                                                ",
"                                                                                                                                ",
"                                                                                                                                ",
"                                                                                                                                ",
"                                                                                                                                ",
"                                                                                                                                ",
"                                                                                                                                ",
"                                                                                                                                ",
"                                                                                                                                ",
"                                                                                                                                ",
"                                                                                                                                ",
"                                                                                                                                ",
"                                                                                                                                "
};
