/* XPM */
static char *f646dcd306f04845cc8a16daff2b2f9d3jvsa2owdAU2GwcZ[] = {
/* columns rows colors chars-per-pixel */
"64 64 157 2 ",
"   c #0003FF",
".  c #0C94FF",
"X  c #12DFFF",
"o  c #12DCFF",
"O  c #0328FF",
"+  c #10C1FF",
"@  c #0A7FFF",
"#  c #0216FF",
"$  c #0A77FF",
"%  c #0FB9FF",
"&  c #11D5FF",
"*  c #11D6FF",
"=  c #0FBAFF",
"-  c #0A78FF",
";  c #0115FF",
":  c #0C9BFF",
">  c #12DBFF",
",  c #10C9FF",
"<  c #032CFF",
"1  c #0B8AFF",
"2  c #0B8DFF",
"3  c #11CFFF",
"4  c #0DA2FF",
"5  c #0431FF",
"6  c #11CEFF",
"7  c #0434FF",
"8  c #11D4FF",
"9  c #0323FF",
"0  c #0541FF",
"q  c #10CAFF",
"w  c #0DA0FF",
"e  c #075DFF",
"r  c #0759FF",
"t  c #0C97FF",
"y  c #021AFF",
"u  c #11D3FF",
"i  c #0542FF",
"p  c #0647FF",
"a  c #0B88FF",
"s  c #0FBFFF",
"d  c #10C2FF",
"f  c #032AFF",
"g  c #0006FF",
"h  c #0A7BFF",
"j  c #0971FF",
"k  c #075EFF",
"l  c #0B85FF",
"z  c #0FB5FF",
"x  c #0EB3FF",
"c  c #0FB6FF",
"v  c #12DEFF",
"b  c #10C3FF",
"n  c #10C4FF",
"m  c #0005FF",
"M  c #11D2FF",
"N  c #10C6FF",
"B  c #0EAEFF",
"V  c #0EAFFF",
"C  c #11CDFF",
"Z  c #010FFF",
"A  c #0217FF",
"S  c #0B89FF",
"D  c #0A7AFF",
"F  c #0326FF",
"G  c #0112FF",
"H  c #096CFF",
"J  c #12DDFF",
"K  c #0EA9FF",
"L  c #064BFF",
"P  c #0A79FF",
"I  c #0970FF",
"U  c #0862FF",
"Y  c #0438FF",
"T  c #0113FF",
"R  c #12D9FF",
"E  c #021FFF",
"W  c #0864FF",
"Q  c #0439FF",
"!  c #10C5FF",
"~  c #0111FF",
"^  c #032DFF",
"/  c #0C96FF",
"(  c #0A7EFF",
")  c #11D0FF",
"_  c #0324FF",
"`  c #053EFF",
"'  c #11D7FF",
"]  c #064FFF",
"[  c #10C8FF",
"{  c #0004FF",
"}  c #0FBDFF",
"|  c #0219FF",
" . c #0433FF",
".. c #0218FF",
"X. c #086AFF",
"o. c #0B87FF",
"O. c #0756FF",
"+. c #0FBCFF",
"@. c #0007FF",
"#. c #096BFF",
"$. c #0DA1FF",
"%. c #0757FF",
"&. c #0C99FF",
"*. c #021CFF",
"=. c #0869FF",
"-. c #0009FF",
";. c #0432FF",
":. c #0437FF",
">. c #12DAFF",
",. c #064CFF",
"<. c #0114FF",
"1. c #0977FF",
"2. c #0974FF",
"3. c #0B8BFF",
"4. c #0A81FF",
"5. c #11D8FF",
"6. c #0008FF",
"7. c #0EACFF",
"8. c #0D9EFF",
"9. c #10CBFF",
"0. c #0435FF",
"q. c #021DFF",
"w. c #0651FF",
"e. c #0646FF",
"r. c #0652FF",
"t. c #0EB1FF",
"y. c #075AFF",
"u. c #064DFF",
"i. c #0A7DFF",
"p. c #021EFF",
"a. c #0649FF",
"s. c #0EB4FF",
"d. c #0545FF",
"f. c #0220FF",
"g. c #0866FF",
"h. c #10CCFF",
"j. c #0B8FFF",
"k. c #010EFF",
"l. c #0C9AFF",
"z. c #0B8CFF",
"x. c #032BFF",
"c. c #0975FF",
"v. c #0C98FF",
"b. c #0FB7FF",
"n. c #0540FF",
"m. c #0FBEFF",
"M. c #010BFF",
"N. c #0DA6FF",
"B. c #0754FF",
"V. c #0C91FF",
"C. c #096EFF",
"Z. c #11D1FF",
"A. c #0753FF",
"S. c #021BFF",
"D. c #0FC0FF",
"F. c #0B84FF",
"G. c black",
/* pixels */
"                                                                                                                                ",
"                                                                                                                                ",
"                                                                                                                                ",
"                                                                                                                                ",
"                                                                                                                                ",
"                                                                                                                                ",
"                                                                                                                                ",
"                                                                                                                                ",
"                                                                                                                                ",
"                                                                                                                                ",
"                                                                                                                                ",
"                                                                                                                                ",
"                                                                                                                                ",
"                                                                                                                                ",
"                                                                                                                                ",
"                                                                                                                                ",
"                                                                                                                                ",
"  . X o O         + X @         # $ % & * = - ;         : X X X X X > , : <     1 X X X X X X X X X 2   : X 3           o X 2   ",
"  . X X 4         + X @       5 6 X X X X X X 3 7       : X X X X X X X X 8 9   1 X X X X X X X X X 2   : X 3           o X 2   ",
"  . X X X 0       + X @     ; q X X w e r t X X 3 y     : X u 0 0 i p . X X a   O 0 0 0 s X d 0 0 0 f   : X 3           o X 2   ",
"  . X X X = g     + X @     h X X j         k X X l     : X 3         g 3 X z           x X c           : X 3           o X 2   ",
"  . X v X X k     + X @     b X n m           c X M m   : X 3           N X B           x X c           : X 3           o X 2   ",
"  . X V d X C Z   + X @   A X X S             D X X F   : X 3     m G H X X h           x X c           : X u 0 0 0 0 0 J X 2   ",
"  . X K L X X P   + X @   f X X I             U X X Y   : X X X X X X X X + T           x X c           : X X X X X X X X X 2   ",
"  . X K   K X R E + X @   < X X I             W X X Q   : X X X X X X ! j ~             x X c           : X X X X X X X X X 2   ",
"  . X K   ^ J X / + X @   y X X 1             ( X X F   : X ) _ ` c X ' ]               x X c           : X 3           o X 2   ",
"  . X K     1 X X R X @     q X [ g         { } X u m   : X 3     | 3 X o  .            x X c           : X 3           o X 2   ",
"  . X K     ..8 X X X @     ( X X $         X.X X o.    : X 3       O.X X +.@.          x X c           : X 3           o X 2   ",
"  . X K       #.X X X @     ..C X X $.r %.&.X X ) *.    : X 3         K X X =.          x X c           : X 3           o X 2   ",
"  . X K       -.b X X @       ;.6 X X X X X X ) :.      : X 3         F >.X 8 A         x X c           : X 3           o X 2   ",
"  . X K         ,.X X @         <.1.% * ' +.h A         : X 3           2.X X 3.        x X c           : X 3           o X 2   ",
"                                                                                                                                ",
"                                                                                                                                ",
"                                                                                                                                ",
"                                                                                                                                ",
"                                                                                                                                ",
"                                                                                                                                ",
"                                                                                                                                ",
"                          A 4.+ 5.* z X.6.      7.X =     8.X X X X > 9.: 0.        : X X X X X X X X +                         ",
"                        q.q X X X X X X K @.    7.X =     8.X X X X X X X o w.      : X X X X X X X X +                         ",
"                        3.X > $ e.r.t.X X y.    7.X =     8.X ) 0 i u.i.R X * p.    : X ) 0 0 0 0 0 0 Y                         ",
"                        } X t       ; o X &.    7.X =     8.X 9.        a.X X h     : X 9.                                      ",
"                        s.X ) d.m     f.F q.    7.X =     8.X 9.          b X =     : X 9.                                      ",
"                        g.X X X h.j.] k.        7.X =     8.X 9.          l.X J g   : X ) ` ` ` ` ` ` |                         ",
"                        g j.X X X X X u X.{     7.X =     8.X 9.          3.X X T   : X X X X X X X X O.                        ",
"                            Y z.9.X X X X g.    7.X =     8.X 9.          1 X X ;   : X X X X X X X X O.                        ",
"                                { x.c.> X C {   7.X =     8.X 9.          v.X v @.  : X 9.                                      ",
"                      < w b.n.        ( X X #   7.X =     8.X 9.          m.X +.    : X 9.                                      ",
"                      q.X X 8.        v.X v M.  7.X =     8.X 9.         .X X P     : X 9.                                      ",
"                        N.X X 8.B.r.V.X X 4     7.X =     8.X ) 0 0 e.C.Z.X * q.    : X ) 0 0 0 0 0 0 0 -.                      ",
"                        9 C X X X X X X 3 _     7.X =     8.X X X X X X X o A.      : X X X X X X X X X S.                      ",
"                          | 4.D.R ' s F.y       7.X =     8.X X X X o q t ;.        : X X X X X X X X X S.                      ",
"                                                                                                                                ",
"                                                                                                                                ",
"                                                                                                                                ",
"                                                                                                                                ",
"                                                                                                                                ",
"                                                                                                                                ",
"                                                                                                                                ",
"                                                                                                                                ",
"                                                                                                                                ",
"                                                                                                                                ",
"                                                                                                                                ",
"                                                                                                                                "
};
