/* XPM */
static char *_e1b0dc2425a4c97fedf82282219558e0i6Cob5wxmedOnvX[] = {
/* columns rows colors chars-per-pixel */
"64 64 162 2 ",
"   c red",
".  c #E80000",
"X  c #6D0000",
"o  c #230000",
"O  c #080000",
"+  c #0B0000",
"@  c #310000",
"#  c #880000",
"$  c #F90000",
"%  c #E90000",
"&  c #780000",
"*  c #2C0000",
"=  c #0C0000",
"-  c #0A0000",
";  c #2B0000",
":  c #770000",
">  c #EA0000",
",  c #4B0000",
"<  c black",
"1  c #1B0000",
"2  c #F70000",
"3  c #6F0000",
"4  c #630000",
"5  c #5F0000",
"6  c #4F0000",
"7  c #130000",
"8  c #030000",
"9  c #E10000",
"0  c #180000",
"q  c #3F0000",
"w  c #FA0000",
"e  c #CA0000",
"r  c #140000",
"t  c #C60000",
"y  c #610000",
"u  c #050000",
"i  c #B10000",
"p  c #A40000",
"a  c #350000",
"s  c #9A0000",
"d  c #490000",
"f  c #970000",
"g  c #9B0000",
"h  c #540000",
"j  c #E40000",
"k  c #D40000",
"l  c #B70000",
"z  c #250000",
"x  c #220000",
"c  c #D20000",
"v  c #270000",
"b  c #040000",
"n  c #510000",
"m  c #740000",
"M  c #7F0000",
"N  c #960000",
"B  c #680000",
"V  c #330000",
"C  c #2F0000",
"Z  c #320000",
"A  c #110000",
"S  c #B20000",
"D  c #FD0000",
"F  c #DD0000",
"G  c #D70000",
"H  c #200000",
"J  c #1F0000",
"K  c #300000",
"L  c #0F0000",
"P  c #8C0000",
"I  c #160000",
"U  c #5D0000",
"Y  c #A70000",
"T  c #F20000",
"R  c #640000",
"E  c #750000",
"W  c #0E0000",
"Q  c #020000",
"!  c #FC0000",
"~  c #FE0000",
"^  c #810000",
"/  c #910000",
"(  c #C10000",
")  c #C20000",
"_  c #600000",
"`  c #170000",
"'  c #CF0000",
"]  c #8F0000",
"[  c #C00000",
"{  c #4C0000",
"}  c #710000",
"|  c #D10000",
" . c #7B0000",
".. c #150000",
"X. c #620000",
"o. c #D60000",
"O. c #190000",
"+. c #D00000",
"@. c #2E0000",
"#. c #B80000",
"$. c #700000",
"%. c #FB0000",
"&. c #820000",
"*. c #520000",
"=. c #010000",
"-. c #F60000",
";. c #660000",
":. c #7E0000",
">. c #B30000",
",. c #A30000",
"<. c #A00000",
"1. c #420000",
"2. c #A10000",
"3. c #5A0000",
"4. c #470000",
"5. c #E70000",
"6. c #480000",
"7. c #9E0000",
"8. c #E20000",
"9. c #7C0000",
"0. c #0D0000",
"q. c #DA0000",
"w. c #120000",
"e. c #D90000",
"r. c #C80000",
"t. c #C30000",
"y. c #6E0000",
"u. c #840000",
"i. c #E50000",
"p. c #240000",
"a. c #070000",
"s. c #090000",
"d. c #6A0000",
"f. c #EB0000",
"g. c #790000",
"h. c #280000",
"j. c #3E0000",
"k. c #410000",
"l. c #AC0000",
"z. c #3B0000",
"x. c #C50000",
"c. c #A50000",
"v. c #B60000",
"b. c #A90000",
"n. c #720000",
"m. c #E00000",
"M. c #AE0000",
"N. c #500000",
"B. c #BB0000",
"V. c #E60000",
"C. c #ED0000",
"Z. c #9F0000",
"A. c #260000",
"S. c #290000",
"D. c #C70000",
"F. c #760000",
"G. c #830000",
"H. c #100000",
"J. c #F80000",
"K. c #A20000",
"L. c #E30000",
"P. c #530000",
/* pixels */
"                                                                                                                                ",
"                                                                                                                                ",
"                                                                                                                                ",
"                                                                                                                                ",
"                                                                                                                                ",
"                                                                                                                                ",
"                                                                                                                                ",
"                                                                                                                                ",
"                                                                                                                                ",
"                                                                                                                                ",
"                                                                                                                                ",
"                                                                                                                                ",
"                                                                                                                                ",
"                                                                                                                                ",
"                                                                                                                                ",
"        . X o O + @ # $           % & * = - ; : >         , < 1         2 < < 3   4 < < < < < < < < < 5   6 < 7           8 < 5 ",
"      9 0 < < < < < < q w       e r < < < < < < 7 t       , < 1         2 < < 3   4 < < < < < < < < < 5   6 < 7           8 < 5 ",
"      y < u & i p a < < s     > 0 < < d f g h < < 7 j     , < 1         2 < < 3   k l l l z < x l l l c   6 < 7           8 < 5 ",
"      v < h       > b < n     m < < M         N < < B     , < 1         2 < < 3           V < C           6 < 7           8 < 5 ",
"      Z < A S D     F G 9     H < J D           K < L D   , < 1         2 < < 3           V < C           6 < 7           8 < 5 ",
"      P < < < I U Y T       . < < R             E < < G   , < 1         2 < < 3           V < C           6 < W l l l l l Q < 5 ",
"      ! U < < < < < W # ~   c < < ^             / < < (   , < 1         2 < < 3           V < C           6 < < < < < < < < < 5 ",
"          ) _ ` < < < < P   ' < < ^             ] < < [   { < 1         2 < < }           V < C           6 < < < < < < < < < 5 ",
"              ~ |  .u < ..~ j < < X.            } < < o.  n < O.        T < < E           V < C           6 < 7           8 < 5 ",
"    +.d @.#.        $.< < %   0 < 1 %.        ~ v < W D   5 < + ~       j < < &.          V < C           6 < 7           8 < 5 ",
"    9 < < ,         *.< =.-.  $.< < &         # < < ;.    :.< < >.      ,.< < <.          V < C           6 < 7           8 < 5 ",
"      1.< < , 2.p 3.< < 4.    5...< < 6.g 7.n < < A 8.    e < < W 9.,.:.0.< b j           V < C           6 < 7           8 < 5 ",
"      q...< < < < < < w.e.      r.r < < < < < < A t.        y.< < < < < < < u.            V < C           6 < 7           8 < 5 ",
"        i.X p.a.s.z d.j           f.g.* - s.h.m .             2.j.w.b A k.l.              V < C           6 < 7           8 < 5 ",
"                                                                                                                                ",
"                                                                                                                                ",
"                                                                                                                                ",
"                                                                                                                                ",
"                                                                                                                                ",
"                                                                                                                                ",
"                                                                                                                                ",
"                            . X o O + @ # $       z.< ;     , < < < < u ` 6 x.        6 < < < < < < < < o                       ",
"                          9 0 < < < < < < q w     z.< ;     , < < < < < < < 8 c.      6 < < < < < < < < o                       ",
"                          y < u & i p a < < s     z.< ;     , < A l v.b.n.a.< + m.    6 < A l l l l l l )                       ",
"                          v < h       > b < n     z.< ;     , < `         M.< < m     6 < `                                     ",
"                          Z < A S D     F G 9     z.< ;     , < `           H < ;     6 < `                                     ",
"                          P < < < I U Y T         z.< ;     , < `           N.< Q %.  6 < A B.B.B.B.B.B.V.                      ",
"                          ! U < < < < < W # ~     z.< ;     , < `           y < < C.  6 < < < < < < < < Z.                      ",
"                              ) _ ` < < < < P     z.< ;     , < `           X.< < >   6 < < < < < < < < Z.                      ",
"                                  ~ |  .u < ..~   z.< ;     , < `           *.< =.w   6 < `                                     ",
"                        +.d @.#.        $.< < %   z.< ;     , < `           A.< S.    6 < `                                     ",
"                        9 < < ,         *.< =.-.  z.< ;     , < `         D.< < F.    6 < `                                     ",
"                          1.< < , 2.p 3.< < 4.    z.< ;     , < A l l i G.H.< - 9     6 < A l l l l l l l J.                    ",
"                          q...< < < < < < w.e.    z.< ;     , < < < < < < < 8 K.      6 < < < < < < < < < L.                    ",
"                            i.X p.a.s.z d.j       z.< ;     , < < < < b 0 P.r.        6 < < < < < < < < < L.                    ",
"                                                                                                                                ",
"                                                                                                                                ",
"                                                                                                                                ",
"                                                                                                                                ",
"                                                                                                                                ",
"                                                                                                                                ",
"                                                                                                                                ",
"                                                                                                                                ",
"                                                                                                                                ",
"                                                                                                                                ",
"                                                                                                                                ",
"                                                                                                                                ",
"                                                                                                                                ",
"                                                                                                                                "
};
