/* XPM */
static char *WE[] = {
/* columns rows colors chars-per-pixel */
"64 64 156 2 ",
"   c yellow",
".  c #2C2C00",
"X  c black",
"o  c #090900",
"O  c #FBFB00",
"+  c #454500",
"@  c #353500",
"#  c #FDFD00",
"$  c #0E0E00",
"%  c #323200",
"&  c #5F5F00",
"*  c #878700",
"=  c #F1F100",
"-  c #7E7E00",
";  c #2E2E00",
":  c #0D0D00",
">  c #060600",
",  c #1D1D00",
"<  c #585800",
"1  c #CCCC00",
"2  c #676700",
"3  c #C7C700",
"4  c #686800",
"5  c #CECE00",
"6  c #F9F900",
"7  c #0A0A00",
"8  c #030300",
"9  c #F2F200",
"0  c #D5D500",
"q  c #6F6F00",
"w  c #EDED00",
"e  c #282800",
"r  c #AAAA00",
"t  c #A3A300",
"y  c #979700",
"u  c #C1C100",
"i  c #B7B700",
"p  c #9E9E00",
"a  c #ABAB00",
"s  c #A0A000",
"d  c #DEDE00",
"f  c #757500",
"g  c #5D5D00",
"h  c #ADAD00",
"j  c #B4B400",
"k  c #747400",
"l  c #010100",
"z  c #111100",
"x  c #F5F500",
"c  c #505000",
"v  c #959500",
"b  c #F0F000",
"n  c #DFDF00",
"m  c #616100",
"M  c #7F7F00",
"N  c #050500",
"B  c #797900",
"V  c #E7E700",
"C  c #373700",
"Z  c #242400",
"A  c #BABA00",
"S  c #CFCF00",
"D  c #1B1B00",
"F  c #2A2A00",
"G  c #3D3D00",
"H  c #434300",
"J  c #3B3B00",
"K  c #3A3A00",
"L  c #303000",
"P  c #444400",
"I  c #020200",
"U  c #8D8D00",
"Y  c #EFEF00",
"T  c #D7D700",
"R  c #565600",
"E  c #858500",
"W  c #F6F600",
"Q  c #040400",
"!  c #A4A400",
"~  c #BBBB00",
"^  c #BFBF00",
"/  c #070700",
"(  c #414100",
")  c #828200",
"_  c #919100",
"`  c #BDBD00",
"'  c #B8B800",
"]  c #C0C000",
"[  c #C3C300",
"{  c #0B0B00",
"}  c #7C7C00",
"|  c #D2D200",
" . c #767600",
".. c #8C8C00",
"X. c #DADA00",
"o. c #131300",
"O. c #E2E200",
"+. c #FCFC00",
"@. c #0C0C00",
"#. c #343400",
"$. c #4A4A00",
"%. c #404000",
"&. c #555500",
"*. c #171700",
"=. c #E8E800",
"-. c #777700",
";. c #888800",
":. c #080800",
">. c #1A1A00",
",. c #535300",
"<. c #4B4B00",
"1. c #909000",
"2. c #E9E900",
"3. c #CACA00",
"4. c #F4F400",
"5. c #C8C800",
"6. c #595900",
"7. c #121200",
"8. c #101000",
"9. c #CBCB00",
"0. c #525200",
"q. c #2D2D00",
"w. c #949400",
"e. c #848400",
"r. c #161600",
"t. c #ACAC00",
"y. c #F3F300",
"u. c #515100",
"i. c #4F4F00",
"p. c #E5E500",
"a. c #222200",
"s. c #5A5A00",
"d. c #FEFE00",
"f. c #313100",
"g. c #939300",
"h. c #929200",
"j. c #A2A200",
"k. c #EAEA00",
"l. c #B0B000",
"z. c #2F2F00",
"x. c #4E4E00",
"c. c #F8F800",
"v. c #D1D100",
"b. c #545400",
"n. c #424200",
"m. c #3E3E00",
"M. c #D9D900",
"N. c #A9A900",
"B. c #808000",
"V. c #D0D000",
"C. c #B5B500",
"Z. c #A1A100",
"A. c #3C3C00",
"S. c #4D4D00",
"D. c #272700",
"F. c #868600",
/* pixels */
"                                                                                                                                ",
"                                                                                                                                ",
"                                                                                                                                ",
"                                                                                                                                ",
"                                                                                                                                ",
"                                                                                                                                ",
"                                                                                                                                ",
"                                                                                                                                ",
"                                                                                                                                ",
"                                                                                                                                ",
"                                                                                                                                ",
"                                                                                                                                ",
"                                                                                                                                ",
"                                                                                                                                ",
"          . X o O       + X X @       # $ X %   & X X X X X X X X X *       = - ; : > , < 1       2 X X X X X X X X X X 3       ",
"          4 X X 5     6 7 X X 8 9     0 X X q   & X X X X X X X X X *     w e X X X X X X 8 r     2 X X X X X X X X X X 3       ",
"          t X X y     u X X X X i     p X X a   & X X s i i i i i i d     f X X g h j k l X z x   0 i i i c X X v i i i b       ",
"          n X X m     M X o N X B     2 X X V   & X X n                   C X Z         m X X A           q X X S               ",
"            D X F     G X H J X K     L X Z     & X X n                   P X I U 9     Y T T 9           q X X S               ",
"            R X I 9 x > X E - X > W W Q X m     & X X ! ~ ~ ~ ~ ~ ^       ! X X X / ( ) 5                 q X X S               ",
"            _ X X ` ' X X 3 ] X X ` [ X X p     & X X X X X X X X {         } I X X X X X @ |             q X X S               ",
"            1 X X *  .X : O 6 7 X M ..X X X.    & X X X X X X X X {           T f F X X X X o.O.          q X X S               ",
"            +.@.X c #.X $.    + X %.&.X *.      & X X n                             =.t ; X X -.          q X X S               ",
"              H X o.8 X ..    ;.X :.>.X ,.      & X X n                 0 <.% 1.        2.X X $.          q X X S               ",
"              M X X X X 5     3.X X X X 1.      & X X n                 2.I X Z 4.      5.X X 6.          q X X S               ",
"              A X X X 7.#     # 8.X X X 1       & X X s i i i i i i 9.    0.X X q.w.a e.r.X X t.          q X X S               ",
"              y.8 X X u.        i.X X @.+.      & X X X X X X X X X H     p.a.X X X X X X X s.d.          q X X S               ",
"                f.X X g.        h.X X +         & X X X X X X X X X H       b M L { N r.+ j.d.            q X X S               ",
"                                                                                                                                ",
"                                                                                                                                ",
"                                                                                                                                ",
"                                                                                                                                ",
"                                                                                                                                ",
"                                                                                                                                ",
"                                                                                                                                ",
"                                                                                                                                ",
"                                                                                                                                ",
"                          = - ; : > , < 1         <.X X y.  & X X X X I : L ) 9         & X X X X X X X X X *                   ",
"                        w e X X X X X X 8 r       <.X X y.  & X X X X X X X X . k.      & X X X X X X X X X *                   ",
"                        f X X g h j k l X z x     <.X X y.  & X X s i l._ z.X X x.      & X X s i i i i i i d                   ",
"                        C X Z         m X X A     <.X X y.  & X X n       c.L X X v.    & X X n                                 ",
"                        P X I U 9     Y T T 9     <.X X y.  & X X n         j.X X E     & X X n                                 ",
"                        ! X X X / ( ) 5           <.X X y.  & X X n         T X X b.    & X X ! ~ ~ ~ ~ ~ ^                     ",
"                          } I X X X X X @ |       <.X X y.  & X X n         =.X X n.    & X X X X X X X X {                     ",
"                            T f F X X X X o.O.    <.X X y.  & X X n         k.X X m.    & X X X X X X X X {                     ",
"                                  =.t ; X X -.    <.X X y.  & X X n         M.X X c     & X X n                                 ",
"                      0 <.% 1.        2.X X $.    <.X X y.  & X X n         N.X X B.    & X X n                                 ",
"                      2.I X Z 4.      5.X X 6.    <.X X y.  & X X n         P X X V.    & X X n                                 ",
"                        0.X X q.w.a e.r.X X t.    <.X X y.  & X X s i C.Z.A.X X S.      & X X s i i i i i i 9.                  ",
"                        p.a.X X X X X X X s.d.    <.X X y.  & X X X X X X X X D.k.      & X X X X X X X X X H                   ",
"                          b M L { N r.+ j.d.      <.X X y.  & X X X X l : % F.y.        & X X X X X X X X X H                   ",
"                                                                                                                                ",
"                                                                                                                                ",
"                                                                                                                                ",
"                                                                                                                                ",
"                                                                                                                                ",
"                                                                                                                                ",
"                                                                                                                                ",
"                                                                                                                                ",
"                                                                                                                                ",
"                                                                                                                                ",
"                                                                                                                                ",
"                                                                                                                                ",
"                                                                                                                                "
};
