/* XPM */
static char *wtc_small[] = {
/* columns rows colors chars-per-pixel */
"64 64 231 2 ",
"   c #000001",
".  c #070708",
"X  c #0B0B0B",
"o  c #1A0D0C",
"O  c #150B0A",
"+  c #1D110D",
"@  c #150F11",
"#  c #141314",
"$  c #1B1B1B",
"%  c #1A1717",
"&  c #230F0C",
"*  c #23130D",
"=  c #2C150D",
"-  c #2C180D",
";  c #38190E",
":  c #271916",
">  c #341C13",
",  c #3C1E13",
"<  c #341611",
"1  c #29211F",
"2  c #392218",
"3  c #1E1C24",
"4  c #232325",
"5  c #2A2423",
"6  c #28272C",
"7  c #362C26",
"8  c #2C2B35",
"9  c #2D2C3A",
"0  c #282733",
"q  c #36353C",
"w  c #363539",
"e  c #411E13",
"r  c #441D0F",
"t  c #442A1E",
"y  c #4A2D1E",
"u  c #472518",
"i  c #542B18",
"p  c #55311D",
"a  c #4A200F",
"s  c #64341A",
"d  c #77391D",
"f  c #622D15",
"g  c #482C21",
"h  c #532F22",
"j  c #473227",
"k  c #583726",
"l  c #4C3631",
"z  c #4F3D33",
"x  c #423A36",
"c  c #563D36",
"v  c #693B27",
"b  c #723C24",
"n  c #603F34",
"m  c #59453A",
"M  c #524033",
"N  c #7B4327",
"B  c #664635",
"V  c #744B35",
"C  c #69432C",
"Z  c #333342",
"A  c #3B3A44",
"S  c #3B3A4A",
"D  c #36374A",
"F  c #3C3D53",
"G  c #413E45",
"H  c #463D4D",
"J  c #423F55",
"K  c #3F4051",
"L  c #45434B",
"P  c #48464D",
"I  c #4B484E",
"U  c #424245",
"Y  c #57484A",
"T  c #444355",
"R  c #494652",
"E  c #4C4A54",
"W  c #45455A",
"Q  c #49465B",
"!  c #46495C",
"~  c #4B4B5C",
"^  c #524C55",
"/  c #504E5D",
"(  c #5A4A54",
")  c #58515C",
"_  c #6B544A",
"`  c #735648",
"'  c #695B5B",
"]  c #6B5250",
"[  c #7B6453",
"{  c #4C4D63",
"}  c #4E4F69",
"|  c #474962",
" . c #514E64",
".. c #514F69",
"X. c #584F62",
"o. c #4E5064",
"O. c #4F516A",
"+. c #525266",
"@. c #5A5565",
"#. c #5C5A64",
"$. c #53536B",
"%. c #59566D",
"&. c #5C5A6D",
"*. c #57596B",
"=. c #565671",
"-. c #595671",
";. c #555873",
":. c #595973",
">. c #4E5070",
",. c #605C6A",
"<. c #696168",
"1. c #766B66",
"2. c #696774",
"3. c #777071",
"4. c #843C1E",
"5. c #833D21",
"6. c #86492B",
"7. c #964927",
"8. c #8B5438",
"9. c #985737",
"0. c #8D5030",
"q. c #A45A37",
"w. c #B15F38",
"e. c #99613D",
"r. c #A5653C",
"t. c #AB643B",
"y. c #B46B3D",
"u. c #B7663C",
"i. c #975F43",
"p. c #A35E40",
"a. c #956544",
"s. c #926C57",
"d. c #AA6844",
"f. c #BA6D42",
"g. c #B66B46",
"h. c #BD7345",
"j. c #B4724A",
"k. c #BB734A",
"l. c #B77648",
"z. c #B67957",
"x. c #A37257",
"c. c #957261",
"v. c #887374",
"b. c #8A7B6F",
"n. c #A87963",
"m. c #C86C49",
"M. c #C27449",
"N. c #CB744A",
"B. c #C57A4C",
"V. c #CE7C4D",
"C. c #C67645",
"Z. c #D27949",
"A. c #CC7D51",
"S. c #C57958",
"D. c #D87C57",
"F. c #76AC5D",
"G. c #6EAA5A",
"H. c #7BB462",
"J. c #7DAA60",
"K. c #BC845A",
"L. c #81AB5E",
"P. c #88B35F",
"I. c #BB8A68",
"U. c #AB8D79",
"Y. c #89AC63",
"T. c #80AB63",
"R. c #96AC6B",
"E. c #89B565",
"W. c #83B964",
"Q. c #8CB668",
"!. c #89B868",
"~. c #86B665",
"^. c #97B46C",
"/. c #9CB973",
"(. c #A7B879",
"). c #B4BA7C",
"_. c #AAA976",
"`. c #CB824C",
"'. c #D4864E",
"]. c #D9884D",
"[. c #CD8354",
"{. c #C98659",
"}. c #D48353",
"|. c #DC8453",
" X c #D88A58",
".X c #DC935D",
"XX c #D89157",
"oX c #E28C5A",
"OX c #E68659",
"+X c #E29255",
"@X c #E3935B",
"#X c #EA995B",
"$X c #EA965C",
"%X c #F09A5B",
"&X c #F2A15E",
"*X c #C58865",
"=X c #D78E63",
"-X c #DB9362",
";X c #D9966A",
":X c #CC9370",
">X c #E98C62",
",X c #E49562",
"<X c #EB9564",
"1X c #EA9A68",
"2X c #F19C64",
"3X c #F59F6B",
"4X c #F09369",
"5X c #F2A265",
"6X c #F5A36C",
"7X c #E7A87D",
"8X c #F6A675",
"9X c #EAAA72",
"0X c #A4C279",
"qX c #898281",
"wX c #B0988A",
"eX c #B9B884",
"rX c #BAAC92",
"tX c #B5AC8E",
"yX c #DB9A83",
"uX c #C6AA8B",
"iX c #C7BB8A",
"pX c #C4BC96",
"aX c #CFAF8F",
"sX c #F4AD81",
"dX c #E8B38E",
"fX c #B5C386",
"gX c #C2C095",
"hX c #C9C288",
"jX c #EBC79A",
"kX c #F1C396",
"lX c #EBCCA0",
/* pixels */
"                                                          . X w . #                                                             ",
"                                                            . # 7 7   #                                                         ",
"                                                          x ` z m m z 1 : # #                                                   ",
"                                                      . 1 t k y u h n m ` 7                                                     ",
"                                                    Y z , , g > * 2 y p p M %                                                   ",
"                                                $ X z = * > 2 2 1 2 t u p V B X . #                                             ",
"                                                4 m j - * * - * - - 2 - y C C M Y                                               ",
"                                              % c y t > - * : o o o * + 2 M p j 7 .                                             ",
"                                              @ p y y - * * & & & * & + * - - > c M +                                           ",
"                                            # 7 a , g ; - , a i p s i ; & o o + 2 y 1                                           ",
"                                            . V p g t , i 6.y.l.B.[.M.9.a o @ + 2 j %                                           ",
"                                            1 C s y a s g.[.XX#X<X$XOXV.0.u * - t 7                                             ",
"                                            # p p i b j.@X5X5X5X5X#X+X|.C.0.< 2 y 1                                             ",
"                                              m k s l.@X%X5X6X6X6X#X+X].Z.u.s = , 7                                             ",
"                                              t p 8.@X&X5X6X6X6X6X5X$X+X].C.6.; y :                                             ",
"                                              t C d.@X5X1X-X1X8X6X6X,X X'.C.0.h k 7 #                                           ",
"                                              l p y..X{.9.l.-X8X8X1XM.6.d r.0.u 2 5                                             ",
"                                            . l 2 e.].h.,X,X2X6X3X<X}.j.d.4.6.; * :                                             ",
"                                              5 = d.C.<X-XA. X1X<X}.B.g.S.g.N 2 o 5                                             ",
"                                              7 = a. X;X:X{.z.=X-XM.j.g.q.q.6.< O 5                                             ",
"                                              5 2 b y.S.*Xj.}.V.=Xg.*X9.9.7.N < @ 6                                             ",
"                                              % N r.XX'.[.N.|.OX,Xw.D.h.u.u.q.a : %                                             ",
"                                                Y y.#X@XoXoX4X2XOXZ. X|.Z.Z.u.i j                                               ",
"                                                7 B.%X2X6X6X3XOXOXN.<X1X%X].y.b j                                               ",
"                                                7 {.%X6X8X3X$X$X<XZ.oX2X2XOXt.6.c                                               ",
"                                                . {.@X6X<X2X|.N.N.7.u.|.oX|.9.d 7                                               ",
"                                                  a.].@X|.$X|.N.N.u.u.C.A.Z.7.C .                                               ",
"                                                  c.XX'.V.'.D.D.D.Z.m.u.w.C.6.`                                                 ",
"                                                  X K.`.y.y.S.|.D.m.q.7.y.M.N 1                                                 ",
"                                                    [ C.].w.d.;X*Xd.7.g.[.r.v 5                                                 ",
"                                                    m K.'.}.7.d.w.5.9.V.g.8.k .                                                 ",
"                                                    % e.`.>XD.D.D.m.m.N.9.v g                                                   ",
"                                                    . ` j.=XOXOXD.N.M.h.v u h j % %   %                                         ",
"                                                      M 8.=XoXA.N.M.[.e.u e v v Y 8                                             ",
"                                                  $ P I C [.<X-X>X X{.b < u 5.i.l q ^ w G 6                                     ",
"                                              6 P 2.@.^ B 9.=X1X1X Xp.u < v 7.d.c D R Q E ) q # #                               ",
"                                          . A ,.+. .%.( c.6.k.>X Xk.v < h 6.q.z.c D J Q  . .~ #.w . .                           ",
"                                  #     # <.$.$. .+.%.) z.k.6.d.d.n r h i.9.g.z.c S W Q { o.+./ W #.U                           ",
"                                    . P &.@.%.%. .+.$.@.c.A.z.0.d v 6.i.q.d.m.s.H F T ! { o.o.{ W ) E w                         ",
"                                  % @.#.@.+.%.$.+.$.%.X.s.A.{.{.z.z.g.p.g.m.S.` W F ! Q { +.o.{ ~ ~ / E w X X                   ",
"                                $ L ,.-.$.$.%.+.@.$.%.%.( z.A.{.A.l.h.C.M.S.n.Y | K | | { $.$.} ..! +.R E I $                   ",
"                                8 E %.:.$.$.-.@.$.%.%.%./ 1.*X X X{.'.{.A.*X] W Q J } ..O.+.$.} +.Q $.Q E U 4                   ",
"                                w @.=.-...$.:.$.$.;.-.$.@.( n.-X,X@X@X.X{.] Q | { W | } O.O.=.{ ..| +.{ E L I . . .             ",
"                              # #.*.*.-.$.$.-.$.$.;.-.-.$...Y c.I.:X:Xc.Y Q Q { } | } } o.+.+.{ ..| } +.~ L G L 6 X             ",
"                            # ,.$.%.-.-.} $.;.$.$.;.-.-.-.>...J ^ ( ( Q | | ~ { } | } } { +.+.o.} } } $.+.R I P 6 .             ",
"                          # L +.%.%.-.$.} -.;.$.=.:.;.-.%.-.>.| | | | ! ! { ....} } } } +.+.+.} | } ..$.~ E R L U               ",
"                          q @.$.$.$.%...} =.;.$.$.:.;.-.-.%....... . .| { ..} } } } ..} +.+.$.{ | { } $.Q @.R P I               ",
"                          E +.........} } =.:.=.$.:.:.;.-.-.-.-...........} O.$.} } ....+.O.$.O.Q }  .$.T +./ I E 4             ",
"                        3 @.o.O.} ..} } | %.:.;.$.:.:.-.-.:.:.-.=.$...>.} } O.$...} $.} } $.$.} W { o.+.T $. .I L q .           ",
"                      w / / o.o.} } } } } -.:.-.-.:.;.=.:.:.:.-.%.X.>.-...} =.$.O.} O.$.} } $.} F o.o.Q Q $. .~ I I             ",
"                    X ^ / { o.{ } } | ..} -.-.;.;.:.:.:.:.:.,.qXuXaXv.X.=.O.$.=.$.=.$.} } } O.} F ~ +.T Q +.+./ E L .           ",
"                  . U / ..} { { | { | } } -.;.;.:.:.;.:.:.:.v.dXdX4XdX<.=.$.$.=.$...$.} } ..$.} D o.O.S Q +.+./ E P 4           ",
"                X # ,./ ..} ~ ~ | | | } O.-.*.:.*.:.:.:.:.&.wXdXjXdXOXU.$.=.$.>.=.$.$.} o.} O.$.D { { D { +.+.~ ^ P ^ .         ",
"                $ G $./ ~  .Q { ~ | ! } O.$.-.:.:.:.$.%.=.,.aXkXjXkX>X7XX.;.=.O.O.$.o.} o.o.o.o.D { W J { ..o.o.~ R E 4         ",
"                # '  . .{ ..Q | | ~ W { $.$.=.:.&.wXrXwX3.1.aXjXlXdX4XyX] 3.v.,.@.>.O.o.{ { o.o.D F T ~ ~ { { ~ ~ E R L         ",
"              # c.c.) {  .{ Q Q ! ! T ! +.$.$.#.tX).R./.pXdX3X8XsXsXD.7XeXgXpXfX3.$.O.o.o.{ o./ q Z T | { o.o.~ ~ ~ E E %       ",
"            . ` -X*XY o.~ ! ! W W W W W o.+.*.<.eX^.W.W.0X7X4XOX4XD.OX8X0XE.E.^.rX<./ { o.{ / ! Z 9 T Q ~ o.} { ! ~ ~ R q       ",
"          . 7 *X#X1X1.! Q Q J J W Q F F o.+.*.2.wXrXfXP.W.0X).hXhXaXhX0XP.Q.^.^.).U.+.{ o.{ / ! Z 3 L ! { { { ~ ! ~ E E E 3     ",
"        $ 1 K.+X#X#XI.^ W W J H T T D 6 ~ o.o.&.} @.tX~.W.W.E.!.Q.!.Q.!.W.^.iXrXuXwX/ o.{ o.! ! D 3 F Q ~ o.} Q { ~ E W ! ^ 4   ",
"          _ XX.X,X#X;Xs.T F F F S A 8 K ~ O.+.<.1.' eXP.E.P.E.Q.Q.Q.!.!.W.(.3.*.+.+.o.{ { ! ! ! D 3 S Q ~ ..} ! ! ~ ~ E E I P   ",
"        $ :XXX.X@X#X.X{._ S D D w w K 6 K O.| U.gXpXfXH.H.H.P.Q.!.!.!.H.H.eX1.O.X...| +.~ F Z Z 8 0 D T ~ +.{ ~ ~ ~ E ~ ^ Y [   ",
"        M '.+XXX.X+XXX`.d.l G R ) A $   w | | 1.(.Y.H.F.R.fX).0X(.(.(.R.W.^.iXeXpXwX{ ~ Q D 9 9 6 4 8 D ~ ~ ~ ! ! ~ ~ / _ n.j.M ",
"        a.'.XXXX].}.[.h.i.:   . .     # 8 K { 1.iX^.J.R.).R.Y.Y.^.(.).).L.F.F.Y._.b.{ ! K D Z Z 9 3 $ 9 D T ! ! ! ~ ~ _ I.XX`.a.",
"      . z.`. X].`.f.k.9.Y       #       # *.~ b.R.fXeXeX(.F.F.G.G.G.F.(.).T.F.R.uX( J S D q 9 8 3 3 6 6 w A K W E / [ I.=XXX`.j."
};
